<svg xmlns="http://www.w3.org/2000/svg" width="960" height="540" viewBox="0 0 960 540">
  <defs>
    <linearGradient id="bg" x1="0%" y1="0%" x2="100%" y2="100%">
      <stop offset="0%" stop-color="#196EDD"/>
      <stop offset="100%" stop-color="#1259B8"/>
    </linearGradient>
  </defs>

  <!-- Background -->
  <rect width="960" height="540" fill="url(#bg)"/>

  <!-- White card -->
  <rect x="160" y="40" width="640" height="460" rx="12" fill="white"/>

  <!-- Label: Monthly take-home income -->
  <text x="200" y="88" font-family="system-ui, -apple-system, sans-serif" font-size="14" font-weight="600" fill="#2A2522">Monthly take-home income</text>

  <!-- Input field -->
  <rect x="200" y="102" width="560" height="48" rx="6" fill="none" stroke="#E3DFDB" stroke-width="1.5"/>
  <text x="220" y="132" font-family="system-ui, -apple-system, sans-serif" font-size="16" fill="#8A817C">$</text>
  <text x="238" y="132" font-family="system-ui, -apple-system, sans-serif" font-size="16" fill="#2A2522">5,360</text>

  <!-- Needs row -->
  <text x="200" y="190" font-family="system-ui, -apple-system, sans-serif" font-size="13" fill="#6E6560">Needs</text>
  <text x="200" y="218" font-family="system-ui, -apple-system, sans-serif" font-size="26" font-weight="700" fill="#2A2522">$2,680</text>
  <rect x="200" y="232" width="560" height="6" rx="3" fill="#E8F0FE"/>
  <rect x="200" y="232" width="560" height="6" rx="3" fill="#196EDD"/>

  <!-- Wants row -->
  <text x="200" y="275" font-family="system-ui, -apple-system, sans-serif" font-size="13" fill="#6E6560">Wants</text>
  <text x="200" y="303" font-family="system-ui, -apple-system, sans-serif" font-size="26" font-weight="700" fill="#2A2522">$1,608</text>
  <rect x="200" y="317" width="560" height="6" rx="3" fill="#E8F0FE"/>
  <rect x="200" y="317" width="336" height="6" rx="3" fill="#6E6560"/>

  <!-- Savings & Debt row -->
  <text x="200" y="360" font-family="system-ui, -apple-system, sans-serif" font-size="13" fill="#6E6560">Savings &amp; Debt</text>
  <text x="200" y="388" font-family="system-ui, -apple-system, sans-serif" font-size="26" font-weight="700" fill="#2A2522">$1,072</text>
  <rect x="200" y="402" width="560" height="6" rx="3" fill="#E8F0FE"/>
  <rect x="200" y="402" width="224" height="6" rx="3" fill="#2A2522"/>
</svg>
