<svg xmlns="http://www.w3.org/2000/svg" width="960" height="540" viewBox="0 0 960 540">
  <defs>
    <linearGradient id="bg" x1="0%" y1="0%" x2="100%" y2="100%">
      <stop offset="0%" stop-color="#ECEFF1"/>
      <stop offset="100%" stop-color="#CFD8DC"/>
    </linearGradient>
    <linearGradient id="blob1" x1="0%" y1="0%" x2="100%" y2="100%">
      <stop offset="0%" stop-color="#546E7A" stop-opacity="0.45"/>
      <stop offset="100%" stop-color="#78909C" stop-opacity="0.2"/>
    </linearGradient>
    <linearGradient id="blob2" x1="100%" y1="0%" x2="0%" y2="100%">
      <stop offset="0%" stop-color="#37474F" stop-opacity="0.35"/>
      <stop offset="100%" stop-color="#90A4AE" stop-opacity="0.15"/>
    </linearGradient>
    <linearGradient id="blob3" x1="0%" y1="100%" x2="100%" y2="0%">
      <stop offset="0%" stop-color="#546E7A" stop-opacity="0.3"/>
      <stop offset="100%" stop-color="#B0BEC5" stop-opacity="0.1"/>
    </linearGradient>
    <filter id="blur1" x="-50%" y="-50%" width="200%" height="200%">
      <feGaussianBlur stdDeviation="55"/>
    </filter>
    <filter id="blur2" x="-50%" y="-50%" width="200%" height="200%">
      <feGaussianBlur stdDeviation="48"/>
    </filter>
    <filter id="blur3" x="-50%" y="-50%" width="200%" height="200%">
      <feGaussianBlur stdDeviation="62"/>
    </filter>
    <filter id="grain">
      <feTurbulence type="fractalNoise" baseFrequency="0.65" numOctaves="3" stitchTiles="stitch"/>
      <feColorMatrix type="saturate" values="0"/>
      <feBlend in="SourceGraphic" mode="multiply"/>
    </filter>
  </defs>
  <rect width="960" height="540" fill="url(#bg)"/>
  <ellipse cx="220" cy="160" rx="310" ry="240" fill="url(#blob1)" filter="url(#blur1)"/>
  <ellipse cx="720" cy="380" rx="270" ry="210" fill="url(#blob2)" filter="url(#blur2)"/>
  <ellipse cx="520" cy="80" rx="240" ry="170" fill="url(#blob3)" filter="url(#blur3)"/>
  <circle cx="180" cy="440" r="130" fill="#546E7A" fill-opacity="0.07" filter="url(#blur2)"/>
  <circle cx="800" cy="120" r="100" fill="#37474F" fill-opacity="0.09" filter="url(#blur3)"/>
  <rect x="360" y="220" width="160" height="160" rx="32" fill="white" fill-opacity="0.1" transform="rotate(-6, 440, 300)" filter="url(#blur2)"/>
  <circle cx="680" cy="200" r="55" fill="white" fill-opacity="0.12" filter="url(#blur1)"/>
  <rect x="120" y="360" width="100" height="100" rx="20" fill="white" fill-opacity="0.08" transform="rotate(12, 170, 410)" filter="url(#blur3)"/>
  <rect width="960" height="540" filter="url(#grain)" opacity="0.12"/>
</svg>
