<svg xmlns="http://www.w3.org/2000/svg" width="960" height="540" viewBox="0 0 960 540">
  <defs>
    <linearGradient id="bg" x1="-5%" y1="-15%" x2="95%" y2="115%">
      <stop offset="0%" stop-color="#1A0E4D"/>
      <stop offset="100%" stop-color="#512DA8"/>
    </linearGradient>
    <linearGradient id="areaFade" x1="0" y1="0" x2="0" y2="1">
      <stop offset="0%" stop-color="#FFFFFF" stop-opacity="0.15"/>
      <stop offset="100%" stop-color="#FFFFFF" stop-opacity="0"/>
    </linearGradient>
    <filter id="blurXL" x="-100%" y="-100%" width="300%" height="300%">
      <feGaussianBlur stdDeviation="65"/>
    </filter>
    <filter id="blurL" x="-100%" y="-100%" width="300%" height="300%">
      <feGaussianBlur stdDeviation="38"/>
    </filter>
    <filter id="blurM" x="-100%" y="-100%" width="300%" height="300%">
      <feGaussianBlur stdDeviation="24"/>
    </filter>
    <filter id="grain">
      <feTurbulence type="fractalNoise" baseFrequency="0.9" numOctaves="4" stitchTiles="stitch" result="noise"/>
      <feColorMatrix in="noise" type="matrix" values="0 0 0 0 1  0 0 0 0 1  0 0 0 0 1  0 0 0 0.6 0"/>
    </filter>
  </defs>

  <rect width="960" height="540" fill="url(#bg)"/>

  <circle cx="20" cy="-50" r="240" fill="#F48FB1" opacity="0.7" filter="url(#blurXL)" style="mix-blend-mode:screen"/>
  <circle cx="340" cy="220" r="165" fill="#F8BBD0" opacity="0.5" filter="url(#blurXL)" style="mix-blend-mode:screen"/>
  <circle cx="600" cy="380" r="95" fill="#EC407A" opacity="0.32" filter="url(#blurL)" style="mix-blend-mode:screen"/>
  <circle cx="800" cy="500" r="55" fill="#0D0726" opacity="0.45" filter="url(#blurXL)"/>

  <rect width="960" height="540" filter="url(#grain)" style="mix-blend-mode:overlay" opacity="0.4"/>

  <g filter="url(#blurM)">
  <circle cx="220" cy="330" r="72" fill="none" stroke="#FFFFFF" stroke-width="7" opacity="0.48"/>
  <circle cx="380" cy="380" r="52" fill="none" stroke="#FFFFFF" stroke-width="6" opacity="0.38"/>
  <circle cx="510" cy="420" r="34" fill="none" stroke="#FFFFFF" stroke-width="6" opacity="0.3"/>
  <circle cx="610" cy="450" r="18" fill="#FFFFFF" opacity="0.32"/>
  </g>

  <!-- Wireframe overlay: Full Vertical Bleed, staircase debt payoff to zero -->
  <g stroke="#FFFFFF" stroke-width="0.75" opacity="0.15">
    <line x1="144" y1="0" x2="144" y2="540" vector-effect="non-scaling-stroke"/>
    <line x1="368" y1="0" x2="368" y2="540" vector-effect="non-scaling-stroke"/>
    <line x1="592" y1="0" x2="592" y2="540" vector-effect="non-scaling-stroke"/>
    <line x1="816" y1="0" x2="816" y2="540" vector-effect="non-scaling-stroke"/>
    <line x1="144" y1="108" x2="816" y2="108" vector-effect="non-scaling-stroke"/>
    <line x1="144" y1="216" x2="816" y2="216" vector-effect="non-scaling-stroke"/>
    <line x1="144" y1="324" x2="816" y2="324" vector-effect="non-scaling-stroke"/>
    <line x1="144" y1="432" x2="816" y2="432" vector-effect="non-scaling-stroke"/>
  </g>
  <g stroke="#FFFFFF" fill="none">
    <line x1="144" y1="0" x2="144" y2="540" stroke-width="1" opacity="0.4" vector-effect="non-scaling-stroke"/>
    <line x1="144" y1="432" x2="816" y2="432" stroke-width="1" opacity="0.4" vector-effect="non-scaling-stroke"/>
  </g>
  <path d="M144,162 L256,162 L256,216 L368,216 L368,270 L480,270 L480,324 L592,324 L592,378 L704,378 L704,432 L816,432 L144,432 Z" fill="url(#areaFade)"/>
  <path d="M144,162 L256,162 L256,216 L368,216 L368,270 L480,270 L480,324 L592,324 L592,378 L704,378 L704,432 L816,432" stroke="#FFFFFF" stroke-width="1.5" opacity="0.95" fill="none" stroke-linecap="round" stroke-linejoin="round" vector-effect="non-scaling-stroke"/>
  <g fill="#FFFFFF">
    <circle cx="144" cy="162" r="6" opacity="0.3"/>
    <circle cx="144" cy="162" r="2" opacity="1"/>
    <circle cx="816" cy="432" r="7" opacity="0.32"/>
    <circle cx="816" cy="432" r="2.2" opacity="1"/>
  </g>
</svg>
