<svg xmlns="http://www.w3.org/2000/svg" width="960" height="540" viewBox="0 0 960 540">
  <defs>
    <linearGradient id="bg" x1="95%" y1="105%" x2="5%" y2="-10%">
      <stop offset="0%" stop-color="#3E0A2E"/>
      <stop offset="100%" stop-color="#7A1656"/>
    </linearGradient>
    <linearGradient id="areaFade" x1="0" y1="0" x2="0" y2="1">
      <stop offset="0%" stop-color="#FFFFFF" stop-opacity="0.15"/>
      <stop offset="100%" stop-color="#FFFFFF" stop-opacity="0"/>
    </linearGradient>
    <filter id="blurXL" x="-100%" y="-100%" width="300%" height="300%">
      <feGaussianBlur stdDeviation="65"/>
    </filter>
    <filter id="blurL" x="-100%" y="-100%" width="300%" height="300%">
      <feGaussianBlur stdDeviation="38"/>
    </filter>
    <filter id="blurM" x="-100%" y="-100%" width="300%" height="300%">
      <feGaussianBlur stdDeviation="24"/>
    </filter>
    <filter id="grain">
      <feTurbulence type="fractalNoise" baseFrequency="0.9" numOctaves="4" stitchTiles="stitch" result="noise"/>
      <feColorMatrix in="noise" type="matrix" values="0 0 0 0 1  0 0 0 0 1  0 0 0 0 1  0 0 0 0.6 0"/>
    </filter>
  </defs>

  <rect width="960" height="540" fill="url(#bg)"/>

  <circle cx="1020" cy="610" r="230" fill="#64B5F6" opacity="0.7" filter="url(#blurXL)" style="mix-blend-mode:screen"/>
  <circle cx="630" cy="350" r="155" fill="#BBDEFB" opacity="0.5" filter="url(#blurXL)" style="mix-blend-mode:screen"/>
  <circle cx="380" cy="200" r="80" fill="#00E5FF" opacity="0.32" filter="url(#blurL)" style="mix-blend-mode:screen"/>
  <circle cx="160" cy="120" r="60" fill="#1A0512" opacity="0.45" filter="url(#blurXL)"/>

  <rect width="960" height="540" filter="url(#grain)" style="mix-blend-mode:overlay" opacity="0.4"/>

  <g filter="url(#blurM)">
  <circle cx="420" cy="290" r="130" fill="none" stroke="#FFFFFF" stroke-width="6" opacity="0.36" stroke-dasharray="40 14"/>
  <circle cx="620" cy="230" r="22" fill="#FFFFFF" opacity="0.3"/>
  <circle cx="660" cy="360" r="14" fill="#FFFFFF" opacity="0.26"/>
  <circle cx="300" cy="420" r="10" fill="#FFFFFF" opacity="0.22"/>
  </g>

  <!-- Wireframe overlay: Full Horizontal Bleed, a trend line that cracks and drops -->
  <g stroke="#FFFFFF" stroke-width="0.75" opacity="0.15">
    <line x1="144" y1="108" x2="144" y2="432" vector-effect="non-scaling-stroke"/>
    <line x1="368" y1="108" x2="368" y2="432" vector-effect="non-scaling-stroke"/>
    <line x1="592" y1="108" x2="592" y2="432" vector-effect="non-scaling-stroke"/>
    <line x1="816" y1="108" x2="816" y2="432" vector-effect="non-scaling-stroke"/>
    <line x1="0" y1="108" x2="960" y2="108" vector-effect="non-scaling-stroke"/>
    <line x1="0" y1="216" x2="960" y2="216" vector-effect="non-scaling-stroke"/>
    <line x1="0" y1="324" x2="960" y2="324" vector-effect="non-scaling-stroke"/>
    <line x1="0" y1="432" x2="960" y2="432" vector-effect="non-scaling-stroke"/>
  </g>
  <line x1="0" y1="432" x2="960" y2="432" stroke="#FFFFFF" stroke-width="1" opacity="0.35" vector-effect="non-scaling-stroke"/>
  <path d="M144,432 C260,380 380,220 480,162 L592,270 C660,330 740,380 816,432 Z" fill="url(#areaFade)"/>
  <path d="M144,432 C260,380 380,220 480,162 L592,270 C660,330 740,380 816,432" stroke="#FFFFFF" stroke-width="1.5" opacity="0.95" fill="none" stroke-linecap="round" stroke-linejoin="round" vector-effect="non-scaling-stroke"/>
  <g fill="#FFFFFF">
    <circle cx="144" cy="432" r="5" opacity="0.25"/>
    <circle cx="144" cy="432" r="1.6" opacity="0.8"/>
    <circle cx="480" cy="162" r="6" opacity="0.3"/>
    <circle cx="480" cy="162" r="2" opacity="1"/>
    <circle cx="816" cy="432" r="5" opacity="0.25"/>
    <circle cx="816" cy="432" r="1.6" opacity="0.8"/>
  </g>
</svg>
