<svg xmlns="http://www.w3.org/2000/svg" width="960" height="540" viewBox="0 0 960 540">
  <!-- Generated by scripts/generate-article-cards.mjs from
       scripts/article-cards/wireframes/budgeting-with-irregular-income.svg (tag: irregular-income). Edit those, not this. -->
  <defs>
    <linearGradient id="bg" x1="0%" y1="100%" x2="100%" y2="0%">
      <stop offset="0%" stop-color="#FBF2E9"/>
      <stop offset="100%" stop-color="#F1E1C5"/>
    </linearGradient>
    <radialGradient id="highlight" cx="78" cy="540" r="560" gradientUnits="userSpaceOnUse">
      <stop offset="0%" stop-color="#FFFFFF" stop-opacity="0.95"/>
      <stop offset="100%" stop-color="#FFFFFF" stop-opacity="0"/>
    </radialGradient>
    <radialGradient id="bloom" cx="1004.6" cy="0" r="520" gradientUnits="userSpaceOnUse">
      <stop offset="0%" stop-color="#F5B184" stop-opacity="0.75"/>
      <stop offset="100%" stop-color="#F5B184" stop-opacity="0"/>
    </radialGradient>
    <radialGradient id="ringFade" cx="0" cy="0" r="720" gradientUnits="userSpaceOnUse">
      <stop offset="0%" stop-color="#FFFFFF" stop-opacity="1"/>
      <stop offset="100%" stop-color="#FFFFFF" stop-opacity="0"/>
    </radialGradient>
    <mask id="ringMask">
      <rect width="960" height="540" fill="url(#ringFade)"/>
    </mask>
    <linearGradient id="areaFade" x1="0" y1="0" x2="0" y2="1">
      <stop offset="0%" stop-color="#081122" stop-opacity="0.12"/>
      <stop offset="100%" stop-color="#081122" stop-opacity="0"/>
    </linearGradient>
  </defs>

  <rect width="960" height="540" fill="url(#bg)"/>
  <rect width="960" height="540" fill="url(#bloom)"/>
  <rect width="960" height="540" fill="url(#highlight)"/>

  <g fill="none" stroke="#081122" stroke-width="1" opacity="0.1" mask="url(#ringMask)">
    <circle cx="0" cy="0" r="70"/>
    <circle cx="0" cy="0" r="134"/>
    <circle cx="0" cy="0" r="198"/>
    <circle cx="0" cy="0" r="262"/>
    <circle cx="0" cy="0" r="326"/>
    <circle cx="0" cy="0" r="390"/>
    <circle cx="0" cy="0" r="454"/>
    <circle cx="0" cy="0" r="518"/>
    <circle cx="0" cy="0" r="582"/>
    <circle cx="0" cy="0" r="646"/>
    <circle cx="0" cy="0" r="710"/>
    <circle cx="0" cy="0" r="774"/>
    <circle cx="0" cy="0" r="838"/>
    <circle cx="0" cy="0" r="902"/>
    <circle cx="0" cy="0" r="966"/>
  </g>

  <g color="#081122">
  <!-- Wireframe overlay: Full Horizontal Bleed, volatile income wave masked to its zero-line -->
  <g stroke="currentColor" stroke-width="0.75" opacity="0.15">
    <line x1="144" y1="108" x2="144" y2="432" vector-effect="non-scaling-stroke"/>
    <line x1="368" y1="108" x2="368" y2="432" vector-effect="non-scaling-stroke"/>
    <line x1="592" y1="108" x2="592" y2="432" vector-effect="non-scaling-stroke"/>
    <line x1="816" y1="108" x2="816" y2="432" vector-effect="non-scaling-stroke"/>
    <line x1="0" y1="108" x2="960" y2="108" vector-effect="non-scaling-stroke"/>
    <line x1="0" y1="216" x2="960" y2="216" vector-effect="non-scaling-stroke"/>
    <line x1="0" y1="324" x2="960" y2="324" vector-effect="non-scaling-stroke"/>
    <line x1="0" y1="432" x2="960" y2="432" vector-effect="non-scaling-stroke"/>
  </g>
  <line x1="0" y1="270" x2="960" y2="270" stroke="currentColor" stroke-width="1" opacity="0.4" stroke-dasharray="4,4" vector-effect="non-scaling-stroke"/>
  <path d="M144,270 C210,162 300,162 368,270 C436,378 526,378 592,270 C660,162 750,162 816,270 Z" fill="url(#areaFade)" opacity="0.9"/>
  <path d="M144,270 C210,162 300,162 368,270 C436,378 526,378 592,270 C660,162 750,162 816,270" stroke="currentColor" stroke-width="1.5" opacity="0.95" fill="none" stroke-linecap="round" vector-effect="non-scaling-stroke"/>
  <g fill="currentColor">
    <circle cx="144" cy="270" r="5" opacity="0.25"/>
    <circle cx="144" cy="270" r="1.6" opacity="0.8"/>
    <circle cx="816" cy="270" r="5" opacity="0.25"/>
    <circle cx="816" cy="270" r="1.6" opacity="0.8"/>
  </g>
  </g>
</svg>
