<svg xmlns="http://www.w3.org/2000/svg" width="960" height="540" viewBox="0 0 960 540">
  <!-- Generated by scripts/generate-article-cards.mjs from
       scripts/article-cards/wireframes/sinking-fund-vs-emergency-fund.svg (tag: savings-goals). Edit those, not this. -->
  <defs>
    <pattern id="halftone" width="9" height="9" patternUnits="userSpaceOnUse">
      <circle cx="4.5" cy="4.5" r="1.8" fill="#2C965D"/>
    </pattern>
    <pattern id="fineDots" width="7" height="7" patternUnits="userSpaceOnUse">
      <circle cx="3.5" cy="3.5" r="0.9" fill="#292929" fill-opacity="0.16"/>
    </pattern>
    <linearGradient id="halftoneFade" x1="0" y1="0" x2="1" y2="1">
      <stop offset="0%" stop-color="#FFFFFF" stop-opacity="0.9"/>
      <stop offset="100%" stop-color="#FFFFFF" stop-opacity="0.05"/>
    </linearGradient>
    <mask id="halftoneMask">
      <rect x="0" y="0" width="426" height="337" fill="url(#halftoneFade)"/>
    </mask>
    <filter id="grain" x="0" y="0" width="100%" height="100%">
      <feTurbulence type="fractalNoise" baseFrequency="0.85" numOctaves="3" seed="824" stitchTiles="stitch"/>
      <feColorMatrix values="0 0 0 0 0.16  0 0 0 0 0.16  0 0 0 0 0.16  0 0 0 0.32 0"/>
    </filter>
    <clipPath id="window">
      <rect x="176" y="88" width="608" height="480" rx="20"/>
    </clipPath>
    <linearGradient id="areaFade" x1="0" y1="0" x2="0" y2="1">
      <stop offset="0%" stop-color="#292929" stop-opacity="0.12"/>
      <stop offset="100%" stop-color="#292929" stop-opacity="0"/>
    </linearGradient>
  </defs>

  <rect width="960" height="540" fill="#ECEAE2"/>
  <rect x="0" y="0" width="426" height="337" fill="#A7F1C9"/>
  <rect x="629" y="337" width="960" height="203" fill="#CDEFEB"/>
  <rect width="960" height="540" fill="url(#halftone)" mask="url(#halftoneMask)" opacity="0.7"/>
  <rect width="960" height="540" fill="url(#fineDots)"/>
  <rect width="960" height="540" filter="url(#grain)"/>

  <rect x="176" y="96" width="608" height="480" rx="20" fill="#292929" opacity="0.14"/>
  <rect x="176" y="88" width="608" height="480" rx="20" fill="#FBFBF8"/>
  <circle cx="200" cy="110" r="5" fill="#FF5F57"/>
  <circle cx="216" cy="110" r="5" fill="#FEBC2E"/>
  <circle cx="232" cy="110" r="5" fill="#28C840"/>

  <g color="#292929" clip-path="url(#window)">
    <g transform="translate(480 300) scale(0.78) translate(-480 -270)">
    <!-- Wireframe overlay: Centered Box. Lower sawtooth = a sinking fund filling,
         emptying and refilling; upper step line = an emergency fund sitting
         untouched until one sudden draw. -->
    <g stroke="currentColor" stroke-width="0.75" opacity="0.15">
      <rect x="144" y="108" width="672" height="324" fill="none" vector-effect="non-scaling-stroke"/>
      <line x1="368" y1="108" x2="368" y2="432" vector-effect="non-scaling-stroke"/>
      <line x1="592" y1="108" x2="592" y2="432" vector-effect="non-scaling-stroke"/>
      <line x1="144" y1="216" x2="816" y2="216" vector-effect="non-scaling-stroke"/>
      <line x1="144" y1="324" x2="816" y2="324" vector-effect="non-scaling-stroke"/>
    </g>
    
    <path d="M144 432 C234 410 300 370 368 324 L368 432 C458 410 524 370 592 324 L592 432 C682 410 748 370 816 324 L816 432 L144 432 Z" fill="url(#areaFade)"/>
    
    <path d="M144 162 L704 162 L704 270 L816 270" fill="none" stroke="currentColor" stroke-width="1" opacity="0.45" stroke-linecap="round" stroke-linejoin="round" vector-effect="non-scaling-stroke"/>
    
    <path d="M144 432 C234 410 300 370 368 324 L368 432 C458 410 524 370 592 324 L592 432 C682 410 748 370 816 324" fill="none" stroke="currentColor" stroke-width="1.5" opacity="0.92" stroke-linecap="round" stroke-linejoin="round" vector-effect="non-scaling-stroke"/>
    
    <g fill="currentColor">
      <circle cx="144" cy="162" r="5" opacity="0.25"/>
      <circle cx="144" cy="162" r="1.6" opacity="0.8"/>
      <circle cx="704" cy="162" r="6" opacity="0.3"/>
      <circle cx="704" cy="162" r="2" opacity="1"/>
      <circle cx="816" cy="270" r="5" opacity="0.25"/>
      <circle cx="816" cy="270" r="1.6" opacity="0.8"/>
      <circle cx="368" cy="324" r="5" opacity="0.25"/>
      <circle cx="368" cy="324" r="1.6" opacity="0.8"/>
      <circle cx="592" cy="324" r="5" opacity="0.25"/>
      <circle cx="592" cy="324" r="1.6" opacity="0.8"/>
      <circle cx="816" cy="324" r="6" opacity="0.3"/>
      <circle cx="816" cy="324" r="2" opacity="1"/>
    </g>
    </g>
  </g>
</svg>
