<svg xmlns="http://www.w3.org/2000/svg" width="960" height="540" viewBox="0 0 960 540">
  <defs>
    <linearGradient id="bg" x1="10%" y1="100%" x2="90%" y2="0%">
      <stop offset="0%" stop-color="#3A1900"/>
      <stop offset="100%" stop-color="#8A4A00"/>
    </linearGradient>
    <filter id="blurXL" x="-100%" y="-100%" width="300%" height="300%">
      <feGaussianBlur stdDeviation="65"/>
    </filter>
    <filter id="blurL" x="-100%" y="-100%" width="300%" height="300%">
      <feGaussianBlur stdDeviation="38"/>
    </filter>
    <filter id="blurM" x="-100%" y="-100%" width="300%" height="300%">
      <feGaussianBlur stdDeviation="24"/>
    </filter>
    <filter id="grain">
      <feTurbulence type="fractalNoise" baseFrequency="0.9" numOctaves="4" stitchTiles="stitch" result="noise"/>
      <feColorMatrix in="noise" type="matrix" values="0 0 0 0 1  0 0 0 0 1  0 0 0 0 1  0 0 0 0.6 0"/>
    </filter>
  </defs>

  <rect width="960" height="540" fill="url(#bg)"/>

  <circle cx="880" cy="480" r="230" fill="#26C6DA" opacity="0.7" filter="url(#blurXL)" style="mix-blend-mode:screen"/>
  <circle cx="520" cy="200" r="170" fill="#80DEEA" opacity="0.5" filter="url(#blurXL)" style="mix-blend-mode:screen"/>
  <circle cx="200" cy="350" r="85" fill="#00E0D0" opacity="0.32" filter="url(#blurL)" style="mix-blend-mode:screen"/>
  <circle cx="50" cy="60" r="190" fill="#2A1400" opacity="0.45" filter="url(#blurXL)"/>

  <rect width="960" height="540" filter="url(#grain)" style="mix-blend-mode:overlay" opacity="0.4"/>

  <g filter="url(#blurM)">
  <circle cx="270" cy="440" r="72" fill="none" stroke="#FFFFFF" stroke-width="7" opacity="0.42"/>
  <circle cx="410" cy="440" r="72" fill="none" stroke="#FFFFFF" stroke-width="7" opacity="0.42"/>
  <circle cx="340" cy="440" r="15" fill="#FFFFFF" opacity="0.55"/>
  </g>

  <!-- Wireframe overlay: Full Horizontal Bleed, recurring paycheck ticks with the extra one highlighted -->
  <g stroke="#FFFFFF" stroke-width="0.75" opacity="0.15">
    <line x1="144" y1="108" x2="144" y2="432" vector-effect="non-scaling-stroke"/>
    <line x1="368" y1="108" x2="368" y2="432" vector-effect="non-scaling-stroke"/>
    <line x1="592" y1="108" x2="592" y2="432" vector-effect="non-scaling-stroke"/>
    <line x1="816" y1="108" x2="816" y2="432" vector-effect="non-scaling-stroke"/>
    <line x1="0" y1="108" x2="960" y2="108" vector-effect="non-scaling-stroke"/>
    <line x1="0" y1="216" x2="960" y2="216" vector-effect="non-scaling-stroke"/>
    <line x1="0" y1="324" x2="960" y2="324" vector-effect="non-scaling-stroke"/>
    <line x1="0" y1="432" x2="960" y2="432" vector-effect="non-scaling-stroke"/>
  </g>
  <line x1="0" y1="324" x2="960" y2="324" stroke="#FFFFFF" stroke-width="1" opacity="0.35" vector-effect="non-scaling-stroke"/>
  <g stroke="#FFFFFF" fill="none" stroke-linecap="round">
    <line x1="144" y1="324" x2="144" y2="162" stroke-width="1.5" opacity="0.95" vector-effect="non-scaling-stroke"/>
    <line x1="256" y1="324" x2="256" y2="270" stroke-width="1" opacity="0.45" vector-effect="non-scaling-stroke"/>
    <line x1="368" y1="324" x2="368" y2="270" stroke-width="1" opacity="0.45" vector-effect="non-scaling-stroke"/>
    <line x1="480" y1="324" x2="480" y2="162" stroke-width="1.5" opacity="0.95" vector-effect="non-scaling-stroke"/>
    <line x1="592" y1="324" x2="592" y2="270" stroke-width="1" opacity="0.45" vector-effect="non-scaling-stroke"/>
    <line x1="704" y1="324" x2="704" y2="270" stroke-width="1" opacity="0.45" vector-effect="non-scaling-stroke"/>
    <line x1="816" y1="324" x2="816" y2="162" stroke-width="1.5" opacity="0.95" vector-effect="non-scaling-stroke"/>
  </g>
  <g fill="#FFFFFF">
    <circle cx="144" cy="162" r="6" opacity="0.3"/>
    <circle cx="144" cy="162" r="2" opacity="1"/>
    <circle cx="480" cy="162" r="6" opacity="0.3"/>
    <circle cx="480" cy="162" r="2" opacity="1"/>
    <circle cx="816" cy="162" r="6" opacity="0.3"/>
    <circle cx="816" cy="162" r="2" opacity="1"/>
  </g>
</svg>
