<svg xmlns="http://www.w3.org/2000/svg" width="960" height="540" viewBox="0 0 960 540">
  <defs>
    <linearGradient id="bg" x1="0%" y1="0%" x2="100%" y2="100%">
      <stop offset="0%" stop-color="#FFF3E0"/>
      <stop offset="100%" stop-color="#FFE0B2"/>
    </linearGradient>
    <linearGradient id="blob1" x1="0%" y1="0%" x2="100%" y2="100%">
      <stop offset="0%" stop-color="#E86A33" stop-opacity="0.5"/>
      <stop offset="100%" stop-color="#FF9A5C" stop-opacity="0.25"/>
    </linearGradient>
    <linearGradient id="blob2" x1="100%" y1="0%" x2="0%" y2="100%">
      <stop offset="0%" stop-color="#D84315" stop-opacity="0.35"/>
      <stop offset="100%" stop-color="#FF8A65" stop-opacity="0.15"/>
    </linearGradient>
    <linearGradient id="blob3" x1="0%" y1="100%" x2="100%" y2="0%">
      <stop offset="0%" stop-color="#7E57C2" stop-opacity="0.3"/>
      <stop offset="100%" stop-color="#CE93D8" stop-opacity="0.1"/>
    </linearGradient>
    <filter id="blur1" x="-50%" y="-50%" width="200%" height="200%">
      <feGaussianBlur stdDeviation="60"/>
    </filter>
    <filter id="blur2" x="-50%" y="-50%" width="200%" height="200%">
      <feGaussianBlur stdDeviation="45"/>
    </filter>
    <filter id="blur3" x="-50%" y="-50%" width="200%" height="200%">
      <feGaussianBlur stdDeviation="55"/>
    </filter>
  </defs>

  <!-- Abstract gradient background -->
  <rect width="960" height="540" fill="url(#bg)"/>
  <ellipse cx="280" cy="120" rx="300" ry="180" fill="url(#blob1)" filter="url(#blur1)"/>
  <ellipse cx="680" cy="80" rx="260" ry="160" fill="url(#blob2)" filter="url(#blur2)"/>
  <ellipse cx="500" cy="30" rx="220" ry="140" fill="url(#blob3)" filter="url(#blur3)"/>
  <circle cx="120" cy="300" r="130" fill="#E86A33" fill-opacity="0.06" filter="url(#blur2)"/>
  <circle cx="850" cy="60" r="120" fill="#7E57C2" fill-opacity="0.08" filter="url(#blur3)"/>

  <!-- White card rising from bottom — 75% of container -->
  <rect x="120" y="135" width="720" height="420" rx="10" fill="white"/>

  <!-- Header -->
  <text x="164" y="176" font-family="system-ui, -apple-system, sans-serif" font-size="14" font-weight="600" fill="#2A2522">June spending</text>
  <text x="164" y="210" font-family="system-ui, -apple-system, sans-serif" font-size="32" font-weight="700" fill="#2A2522">$3,847</text>

  <!-- Divider -->
  <line x1="164" y1="228" x2="796" y2="228" stroke="#F0EDEA" stroke-width="1"/>

  <!-- Category rows -->
  <!-- Housing -->
  <text x="164" y="262" font-family="system-ui, -apple-system, sans-serif" font-size="14" fill="#2A2522">Housing</text>
  <text x="796" y="262" font-family="system-ui, -apple-system, sans-serif" font-size="14" fill="#2A2522" text-anchor="end">$1,450</text>
  <rect x="164" y="274" width="632" height="5" rx="2.5" fill="#F0EDEA"/>
  <rect x="164" y="274" width="476" height="5" rx="2.5" fill="#E86A33"/>

  <!-- Food -->
  <text x="164" y="310" font-family="system-ui, -apple-system, sans-serif" font-size="14" fill="#2A2522">Food &amp; Dining</text>
  <text x="796" y="310" font-family="system-ui, -apple-system, sans-serif" font-size="14" fill="#2A2522" text-anchor="end">$620</text>
  <rect x="164" y="322" width="632" height="5" rx="2.5" fill="#F0EDEA"/>
  <rect x="164" y="322" width="204" height="5" rx="2.5" fill="#E86A33" fill-opacity="0.7"/>

  <!-- Transportation -->
  <text x="164" y="358" font-family="system-ui, -apple-system, sans-serif" font-size="14" fill="#2A2522">Transportation</text>
  <text x="796" y="358" font-family="system-ui, -apple-system, sans-serif" font-size="14" fill="#2A2522" text-anchor="end">$485</text>
  <rect x="164" y="370" width="632" height="5" rx="2.5" fill="#F0EDEA"/>
  <rect x="164" y="370" width="160" height="5" rx="2.5" fill="#E86A33" fill-opacity="0.5"/>

  <!-- Subscriptions -->
  <text x="164" y="406" font-family="system-ui, -apple-system, sans-serif" font-size="14" fill="#2A2522">Subscriptions</text>
  <text x="796" y="406" font-family="system-ui, -apple-system, sans-serif" font-size="14" fill="#2A2522" text-anchor="end">$312</text>
  <rect x="164" y="418" width="632" height="5" rx="2.5" fill="#F0EDEA"/>
  <rect x="164" y="418" width="102" height="5" rx="2.5" fill="#E86A33" fill-opacity="0.35"/>

  <!-- Shopping -->
  <text x="164" y="454" font-family="system-ui, -apple-system, sans-serif" font-size="14" fill="#2A2522">Shopping</text>
  <text x="796" y="454" font-family="system-ui, -apple-system, sans-serif" font-size="14" fill="#2A2522" text-anchor="end">$280</text>
  <rect x="164" y="466" width="632" height="5" rx="2.5" fill="#F0EDEA"/>
  <rect x="164" y="466" width="92" height="5" rx="2.5" fill="#E86A33" fill-opacity="0.25"/>

  <!-- Other -->
  <text x="164" y="502" font-family="system-ui, -apple-system, sans-serif" font-size="14" fill="#6E6560">+ 4 more categories</text>
  <text x="796" y="502" font-family="system-ui, -apple-system, sans-serif" font-size="14" fill="#6E6560" text-anchor="end">$700</text>
</svg>
