<svg xmlns="http://www.w3.org/2000/svg" width="960" height="540" viewBox="0 0 960 540">
  <defs>
    <linearGradient id="bg" x1="95%" y1="105%" x2="5%" y2="-10%">
      <stop offset="0%" stop-color="#3E0A2E"/>
      <stop offset="100%" stop-color="#7A1656"/>
    </linearGradient>
    <linearGradient id="areaFade" x1="0" y1="0" x2="0" y2="1">
      <stop offset="0%" stop-color="#FFFFFF" stop-opacity="0.15"/>
      <stop offset="100%" stop-color="#FFFFFF" stop-opacity="0"/>
    </linearGradient>
    <filter id="blurXL" x="-100%" y="-100%" width="300%" height="300%">
      <feGaussianBlur stdDeviation="65"/>
    </filter>
    <filter id="blurL" x="-100%" y="-100%" width="300%" height="300%">
      <feGaussianBlur stdDeviation="38"/>
    </filter>
    <filter id="blurM" x="-100%" y="-100%" width="300%" height="300%">
      <feGaussianBlur stdDeviation="24"/>
    </filter>
    <filter id="grain">
      <feTurbulence type="fractalNoise" baseFrequency="0.9" numOctaves="4" stitchTiles="stitch" result="noise"/>
      <feColorMatrix in="noise" type="matrix" values="0 0 0 0 1  0 0 0 0 1  0 0 0 0 1  0 0 0 0.6 0"/>
    </filter>
  </defs>

  <rect width="960" height="540" fill="url(#bg)"/>

  <circle cx="1020" cy="610" r="230" fill="#64B5F6" opacity="0.7" filter="url(#blurXL)" style="mix-blend-mode:screen"/>
  <circle cx="630" cy="350" r="155" fill="#BBDEFB" opacity="0.5" filter="url(#blurXL)" style="mix-blend-mode:screen"/>
  <circle cx="380" cy="200" r="80" fill="#00E5FF" opacity="0.32" filter="url(#blurL)" style="mix-blend-mode:screen"/>
  <circle cx="160" cy="120" r="60" fill="#1A0512" opacity="0.45" filter="url(#blurXL)"/>

  <rect width="960" height="540" filter="url(#grain)" style="mix-blend-mode:overlay" opacity="0.4"/>

  <g filter="url(#blurM)">
  <circle cx="420" cy="290" r="130" fill="none" stroke="#FFFFFF" stroke-width="6" opacity="0.36" stroke-dasharray="40 14"/>
  <circle cx="620" cy="230" r="22" fill="#FFFFFF" opacity="0.3"/>
  <circle cx="660" cy="360" r="14" fill="#FFFFFF" opacity="0.26"/>
  <circle cx="300" cy="420" r="10" fill="#FFFFFF" opacity="0.22"/>
  </g>

  <!-- Wireframe overlay: a trend line that cracks and drops, anchored in a centered safe zone -->
  <g stroke="#FFFFFF" stroke-width="0.75" opacity="0.15">
    <rect x="240" y="162" width="480" height="216" fill="none"/>
    <line x1="400" y1="162" x2="400" y2="378"/>
    <line x1="560" y1="162" x2="560" y2="378"/>
    <line x1="240" y1="234" x2="720" y2="234"/>
    <line x1="240" y1="306" x2="720" y2="306"/>
  </g>
  <path d="M280,350 C340,330 400,260 480,230 L510,260 L530,215 L550,270 C600,300 640,320 680,340 L680,378 L280,378 Z" fill="url(#areaFade)"/>
  <path d="M280,350 C340,330 400,260 480,230 L510,260 L530,215 L550,270 C600,300 640,320 680,340" stroke="#FFFFFF" stroke-width="1.5" opacity="0.95" fill="none" stroke-linecap="round" stroke-linejoin="round"/>
  <g fill="#FFFFFF">
    <circle cx="280" cy="350" r="5" opacity="0.25"/>
    <circle cx="280" cy="350" r="1.6" opacity="0.8"/>
    <circle cx="480" cy="230" r="6" opacity="0.3"/>
    <circle cx="480" cy="230" r="2" opacity="1"/>
    <circle cx="680" cy="340" r="5" opacity="0.25"/>
    <circle cx="680" cy="340" r="1.6" opacity="0.8"/>
  </g>
</svg>
