<svg xmlns="http://www.w3.org/2000/svg" width="960" height="540" viewBox="0 0 960 540">
  <defs>
    <linearGradient id="bg" x1="45%" y1="115%" x2="65%" y2="-15%">
      <stop offset="0%" stop-color="#073B4C"/>
      <stop offset="100%" stop-color="#0E7C86"/>
    </linearGradient>
    <filter id="blurXL" x="-100%" y="-100%" width="300%" height="300%">
      <feGaussianBlur stdDeviation="65"/>
    </filter>
    <filter id="blurL" x="-100%" y="-100%" width="300%" height="300%">
      <feGaussianBlur stdDeviation="38"/>
    </filter>
    <filter id="blurM" x="-100%" y="-100%" width="300%" height="300%">
      <feGaussianBlur stdDeviation="24"/>
    </filter>
    <filter id="grain">
      <feTurbulence type="fractalNoise" baseFrequency="0.9" numOctaves="4" stitchTiles="stitch" result="noise"/>
      <feColorMatrix in="noise" type="matrix" values="0 0 0 0 1  0 0 0 0 1  0 0 0 0 1  0 0 0 0.6 0"/>
    </filter>
  </defs>

  <rect width="960" height="540" fill="url(#bg)"/>

  <circle cx="560" cy="-50" r="230" fill="#7C4DFF" opacity="0.7" filter="url(#blurXL)" style="mix-blend-mode:screen"/>
  <circle cx="420" cy="280" r="165" fill="#B39DDB" opacity="0.5" filter="url(#blurXL)" style="mix-blend-mode:screen"/>
  <circle cx="250" cy="440" r="85" fill="#40C4FF" opacity="0.32" filter="url(#blurL)" style="mix-blend-mode:screen"/>
  <circle cx="700" cy="610" r="160" fill="#041F27" opacity="0.45" filter="url(#blurXL)"/>

  <rect width="960" height="540" filter="url(#grain)" style="mix-blend-mode:overlay" opacity="0.4"/>

  <g filter="url(#blurM)">
  <circle cx="420" cy="440" r="26" fill="#FFFFFF" opacity="0.24"/>
  <circle cx="420" cy="380" r="40" fill="#FFFFFF" opacity="0.2"/>
  <circle cx="420" cy="300" r="58" fill="#FFFFFF" opacity="0.16"/>
  <circle cx="420" cy="200" r="80" fill="none" stroke="#FFFFFF" stroke-width="6" opacity="0.32"/>
  </g>

  <!-- Wireframe overlay: Centered Box, three parallel sinking funds each partly filled -->
  <g stroke="#FFFFFF" stroke-width="0.75" opacity="0.15">
    <rect x="144" y="108" width="672" height="324" fill="none" vector-effect="non-scaling-stroke"/>
    <line x1="368" y1="108" x2="368" y2="432" vector-effect="non-scaling-stroke"/>
    <line x1="592" y1="108" x2="592" y2="432" vector-effect="non-scaling-stroke"/>
    <line x1="144" y1="216" x2="816" y2="216" vector-effect="non-scaling-stroke"/>
    <line x1="144" y1="324" x2="816" y2="324" vector-effect="non-scaling-stroke"/>
  </g>
  <g stroke="#FFFFFF" fill="none" stroke-width="1.5" opacity="0.9" stroke-linecap="round">
    <rect x="224" y="162" width="64" height="216" vector-effect="non-scaling-stroke"/>
    <rect x="448" y="162" width="64" height="216" vector-effect="non-scaling-stroke"/>
    <rect x="672" y="162" width="64" height="216" vector-effect="non-scaling-stroke"/>
  </g>
  <g fill="#FFFFFF" opacity="0.18">
    <rect x="224" y="270" width="64" height="108"/>
    <rect x="448" y="216" width="64" height="162"/>
    <rect x="672" y="324" width="64" height="54"/>
  </g>
  <g stroke="#FFFFFF" stroke-width="1.5" opacity="0.95" stroke-linecap="round">
    <line x1="224" y1="270" x2="288" y2="270" vector-effect="non-scaling-stroke"/>
    <line x1="448" y1="216" x2="512" y2="216" vector-effect="non-scaling-stroke"/>
    <line x1="672" y1="324" x2="736" y2="324" vector-effect="non-scaling-stroke"/>
  </g>
</svg>
