<svg xmlns="http://www.w3.org/2000/svg" width="960" height="540" viewBox="0 0 960 540">
  <defs>
    <linearGradient id="bg" x1="90%" y1="-10%" x2="15%" y2="110%">
      <stop offset="0%" stop-color="#1B1464"/>
      <stop offset="100%" stop-color="#3D2C8D"/>
    </linearGradient>
    <filter id="blurXL" x="-100%" y="-100%" width="300%" height="300%">
      <feGaussianBlur stdDeviation="65"/>
    </filter>
    <filter id="blurL" x="-100%" y="-100%" width="300%" height="300%">
      <feGaussianBlur stdDeviation="38"/>
    </filter>
    <filter id="blurM" x="-100%" y="-100%" width="300%" height="300%">
      <feGaussianBlur stdDeviation="24"/>
    </filter>
    <filter id="grain">
      <feTurbulence type="fractalNoise" baseFrequency="0.9" numOctaves="4" stitchTiles="stitch" result="noise"/>
      <feColorMatrix in="noise" type="matrix" values="0 0 0 0 1  0 0 0 0 1  0 0 0 0 1  0 0 0 0.6 0"/>
    </filter>
  </defs>

  <rect width="960" height="540" fill="url(#bg)"/>

  <circle cx="1000" cy="-40" r="220" fill="#F06292" opacity="0.7" filter="url(#blurXL)" style="mix-blend-mode:screen"/>
  <circle cx="620" cy="260" r="160" fill="#F8BBD0" opacity="0.5" filter="url(#blurXL)" style="mix-blend-mode:screen"/>
  <circle cx="340" cy="420" r="85" fill="#EC407A" opacity="0.32" filter="url(#blurL)" style="mix-blend-mode:screen"/>
  <circle cx="-60" cy="560" r="150" fill="#0D0938" opacity="0.45" filter="url(#blurXL)"/>

  <rect width="960" height="540" filter="url(#grain)" style="mix-blend-mode:overlay" opacity="0.4"/>

  <g filter="url(#blurM)">
  <circle cx="230" cy="180" r="20" fill="#FFFFFF" opacity="0.22"/>
  <circle cx="320" cy="220" r="14" fill="#FFFFFF" opacity="0.18"/>
  <circle cx="400" cy="170" r="16" fill="#FFFFFF" opacity="0.2"/>
  <circle cx="500" cy="240" r="12" fill="#FFFFFF" opacity="0.16"/>
  <circle cx="600" cy="190" r="18" fill="#FFFFFF" opacity="0.2"/>
  <circle cx="700" cy="260" r="14" fill="#FFFFFF" opacity="0.16"/>
  <circle cx="280" cy="320" r="10" fill="#FFFFFF" opacity="0.14"/>
  <circle cx="460" cy="340" r="10" fill="#FFFFFF" opacity="0.14"/>
  </g>

  <!-- Wireframe overlay: Full Horizontal Bleed, 30 days of tracking data accumulating upward -->
  <g stroke="#FFFFFF" stroke-width="0.75" opacity="0.15">
    <line x1="144" y1="108" x2="144" y2="432" vector-effect="non-scaling-stroke"/>
    <line x1="368" y1="108" x2="368" y2="432" vector-effect="non-scaling-stroke"/>
    <line x1="592" y1="108" x2="592" y2="432" vector-effect="non-scaling-stroke"/>
    <line x1="816" y1="108" x2="816" y2="432" vector-effect="non-scaling-stroke"/>
    <line x1="0" y1="108" x2="960" y2="108" vector-effect="non-scaling-stroke"/>
    <line x1="0" y1="216" x2="960" y2="216" vector-effect="non-scaling-stroke"/>
    <line x1="0" y1="324" x2="960" y2="324" vector-effect="non-scaling-stroke"/>
    <line x1="0" y1="432" x2="960" y2="432" vector-effect="non-scaling-stroke"/>
  </g>
  <line x1="0" y1="378" x2="960" y2="378" stroke="#FFFFFF" stroke-width="1" opacity="0.35" vector-effect="non-scaling-stroke"/>
  <path d="M144,378 C220,378 300,300 368,270 C440,240 520,216 592,216 C660,216 750,180 816,162" stroke="#FFFFFF" stroke-width="1.5" opacity="0.95" fill="none" stroke-linecap="round" vector-effect="non-scaling-stroke"/>
  <g fill="#FFFFFF">
    <circle cx="144" cy="378" r="5" opacity="0.25"/>
    <circle cx="144" cy="378" r="1.6" opacity="0.8"/>
    <circle cx="368" cy="270" r="5" opacity="0.25"/>
    <circle cx="368" cy="270" r="1.6" opacity="0.8"/>
    <circle cx="592" cy="216" r="5" opacity="0.25"/>
    <circle cx="592" cy="216" r="1.6" opacity="0.8"/>
    <circle cx="816" cy="162" r="6" opacity="0.3"/>
    <circle cx="816" cy="162" r="2" opacity="1"/>
  </g>
</svg>
