<svg xmlns="http://www.w3.org/2000/svg" width="960" height="540" viewBox="0 0 960 540">
  <defs>
    <linearGradient id="bg" x1="50%" y1="-15%" x2="50%" y2="115%">
      <stop offset="0%" stop-color="#00352C"/>
      <stop offset="100%" stop-color="#00695C"/>
    </linearGradient>
    <filter id="blurXL" x="-100%" y="-100%" width="300%" height="300%">
      <feGaussianBlur stdDeviation="65"/>
    </filter>
    <filter id="blurL" x="-100%" y="-100%" width="300%" height="300%">
      <feGaussianBlur stdDeviation="38"/>
    </filter>
    <filter id="blurM" x="-100%" y="-100%" width="300%" height="300%">
      <feGaussianBlur stdDeviation="24"/>
    </filter>
    <filter id="grain">
      <feTurbulence type="fractalNoise" baseFrequency="0.9" numOctaves="4" stitchTiles="stitch" result="noise"/>
      <feColorMatrix in="noise" type="matrix" values="0 0 0 0 1  0 0 0 0 1  0 0 0 0 1  0 0 0 0.6 0"/>
    </filter>
  </defs>

  <rect width="960" height="540" fill="url(#bg)"/>

  <circle cx="520" cy="-60" r="230" fill="#29B6F6" opacity="0.7" filter="url(#blurXL)" style="mix-blend-mode:screen"/>
  <circle cx="480" cy="260" r="165" fill="#81D4FA" opacity="0.5" filter="url(#blurXL)" style="mix-blend-mode:screen"/>
  <circle cx="720" cy="430" r="85" fill="#00E5FF" opacity="0.32" filter="url(#blurL)" style="mix-blend-mode:screen"/>
  <circle cx="260" cy="610" r="160" fill="#002018" opacity="0.45" filter="url(#blurXL)"/>

  <rect width="960" height="540" filter="url(#grain)" style="mix-blend-mode:overlay" opacity="0.4"/>

  <g filter="url(#blurM)">
  <circle cx="400" cy="290" r="150" fill="none" stroke="#FFFFFF" stroke-width="7" opacity="0.5"/>
  <circle cx="400" cy="290" r="150" fill="#FFFFFF" opacity="0.1"/>
  <circle cx="600" cy="250" r="140" fill="none" stroke="#FFFFFF" stroke-width="6" opacity="0.3"/>
  <ellipse cx="500" cy="270" rx="55" ry="130" fill="#FFFFFF" opacity="0.16"/>
  </g>

  <!-- Wireframe overlay: Type C (clean floating box), manual steps vs. automated flow -->
  <g stroke="#FFFFFF" stroke-width="0.75" opacity="0.15">
    <rect x="144" y="108" width="672" height="324" fill="none" vector-effect="non-scaling-stroke"/>
    <line x1="368" y1="108" x2="368" y2="432" vector-effect="non-scaling-stroke"/>
    <line x1="592" y1="108" x2="592" y2="432" vector-effect="non-scaling-stroke"/>
    <line x1="144" y1="216" x2="816" y2="216" vector-effect="non-scaling-stroke"/>
    <line x1="144" y1="324" x2="816" y2="324" vector-effect="non-scaling-stroke"/>
  </g>
  <g stroke="#FFFFFF" fill="none" stroke-linecap="round" stroke-linejoin="round">
    <line x1="480" y1="108" x2="480" y2="432" stroke-width="1" opacity="0.35" stroke-dasharray="4,4" vector-effect="non-scaling-stroke"/>
    <path d="M144,378 L256,378 L256,324 L368,324 L368,270" stroke-width="1.5" opacity="0.92" vector-effect="non-scaling-stroke"/>
    <path d="M592,378 C660,378 700,270 816,162" stroke-width="1.5" opacity="0.92" vector-effect="non-scaling-stroke"/>
  </g>
  <g fill="#FFFFFF">
    <circle cx="144" cy="378" r="4" opacity="0.25"/>
    <circle cx="144" cy="378" r="1.4" opacity="0.75"/>
    <circle cx="368" cy="270" r="6" opacity="0.3"/>
    <circle cx="368" cy="270" r="2" opacity="1"/>
    <circle cx="592" cy="378" r="4" opacity="0.25"/>
    <circle cx="592" cy="378" r="1.4" opacity="0.75"/>
    <circle cx="816" cy="162" r="6" opacity="0.3"/>
    <circle cx="816" cy="162" r="2" opacity="1"/>
  </g>
</svg>
