<svg xmlns="http://www.w3.org/2000/svg" width="960" height="540" viewBox="0 0 960 540">
  <!-- Generated by scripts/generate-article-cards.mjs from
       scripts/article-cards/wireframes/sinking-funds.svg (tag: savings-goals). Edit those, not this. -->
  <defs>
    <linearGradient id="bg" x1="0%" y1="100%" x2="100%" y2="0%">
      <stop offset="0%" stop-color="#E9FBF1"/>
      <stop offset="100%" stop-color="#C5F1DE"/>
    </linearGradient>
    <radialGradient id="highlight" cx="-45.6" cy="540" r="560" gradientUnits="userSpaceOnUse">
      <stop offset="0%" stop-color="#FFFFFF" stop-opacity="0.95"/>
      <stop offset="100%" stop-color="#FFFFFF" stop-opacity="0"/>
    </radialGradient>
    <radialGradient id="bloom" cx="928.9" cy="0" r="520" gradientUnits="userSpaceOnUse">
      <stop offset="0%" stop-color="#84F5A8" stop-opacity="0.75"/>
      <stop offset="100%" stop-color="#84F5A8" stop-opacity="0"/>
    </radialGradient>
    <radialGradient id="ringFade" cx="0" cy="0" r="720" gradientUnits="userSpaceOnUse">
      <stop offset="0%" stop-color="#FFFFFF" stop-opacity="1"/>
      <stop offset="100%" stop-color="#FFFFFF" stop-opacity="0"/>
    </radialGradient>
    <mask id="ringMask">
      <rect width="960" height="540" fill="url(#ringFade)"/>
    </mask>
    <linearGradient id="areaFade" x1="0" y1="0" x2="0" y2="1">
      <stop offset="0%" stop-color="#081122" stop-opacity="0.12"/>
      <stop offset="100%" stop-color="#081122" stop-opacity="0"/>
    </linearGradient>
  </defs>

  <rect width="960" height="540" fill="url(#bg)"/>
  <rect width="960" height="540" fill="url(#bloom)"/>
  <rect width="960" height="540" fill="url(#highlight)"/>

  <g fill="none" stroke="#081122" stroke-width="1" opacity="0.1" mask="url(#ringMask)">
    <circle cx="0" cy="0" r="70"/>
    <circle cx="0" cy="0" r="134"/>
    <circle cx="0" cy="0" r="198"/>
    <circle cx="0" cy="0" r="262"/>
    <circle cx="0" cy="0" r="326"/>
    <circle cx="0" cy="0" r="390"/>
    <circle cx="0" cy="0" r="454"/>
    <circle cx="0" cy="0" r="518"/>
    <circle cx="0" cy="0" r="582"/>
    <circle cx="0" cy="0" r="646"/>
    <circle cx="0" cy="0" r="710"/>
    <circle cx="0" cy="0" r="774"/>
    <circle cx="0" cy="0" r="838"/>
    <circle cx="0" cy="0" r="902"/>
    <circle cx="0" cy="0" r="966"/>
  </g>

  <g color="#081122">
  <!-- Wireframe overlay: Centered Box, three parallel sinking funds each partly filled -->
  <g stroke="currentColor" stroke-width="0.75" opacity="0.15">
    <rect x="144" y="108" width="672" height="324" fill="none" vector-effect="non-scaling-stroke"/>
    <line x1="368" y1="108" x2="368" y2="432" vector-effect="non-scaling-stroke"/>
    <line x1="592" y1="108" x2="592" y2="432" vector-effect="non-scaling-stroke"/>
    <line x1="144" y1="216" x2="816" y2="216" vector-effect="non-scaling-stroke"/>
    <line x1="144" y1="324" x2="816" y2="324" vector-effect="non-scaling-stroke"/>
  </g>
  <g stroke="currentColor" fill="none" stroke-width="1.5" opacity="0.9" stroke-linecap="round">
    <rect x="224" y="162" width="64" height="216" vector-effect="non-scaling-stroke"/>
    <rect x="448" y="162" width="64" height="216" vector-effect="non-scaling-stroke"/>
    <rect x="672" y="162" width="64" height="216" vector-effect="non-scaling-stroke"/>
  </g>
  <g fill="currentColor" opacity="0.18">
    <rect x="224" y="270" width="64" height="108"/>
    <rect x="448" y="216" width="64" height="162"/>
    <rect x="672" y="324" width="64" height="54"/>
  </g>
  <g stroke="currentColor" stroke-width="1.5" opacity="0.95" stroke-linecap="round">
    <line x1="224" y1="270" x2="288" y2="270" vector-effect="non-scaling-stroke"/>
    <line x1="448" y1="216" x2="512" y2="216" vector-effect="non-scaling-stroke"/>
    <line x1="672" y1="324" x2="736" y2="324" vector-effect="non-scaling-stroke"/>
  </g>
  </g>
</svg>
