<svg xmlns="http://www.w3.org/2000/svg" width="960" height="540" viewBox="0 0 960 540">
  <defs>
    <linearGradient id="bg" x1="15%" y1="-10%" x2="95%" y2="110%">
      <stop offset="0%" stop-color="#4A0E42"/>
      <stop offset="100%" stop-color="#A61E7B"/>
    </linearGradient>
    <filter id="blurXL" x="-100%" y="-100%" width="300%" height="300%">
      <feGaussianBlur stdDeviation="65"/>
    </filter>
    <filter id="blurL" x="-100%" y="-100%" width="300%" height="300%">
      <feGaussianBlur stdDeviation="38"/>
    </filter>
    <filter id="blurM" x="-100%" y="-100%" width="300%" height="300%">
      <feGaussianBlur stdDeviation="24"/>
    </filter>
    <filter id="grain">
      <feTurbulence type="fractalNoise" baseFrequency="0.9" numOctaves="4" stitchTiles="stitch" result="noise"/>
      <feColorMatrix in="noise" type="matrix" values="0 0 0 0 1  0 0 0 0 1  0 0 0 0 1  0 0 0 0.6 0"/>
    </filter>
  </defs>

  <rect width="960" height="540" fill="url(#bg)"/>

  <circle cx="-40" cy="580" r="230" fill="#81C784" opacity="0.7" filter="url(#blurXL)" style="mix-blend-mode:screen"/>
  <circle cx="980" cy="120" r="175" fill="#A5D6A7" opacity="0.5" filter="url(#blurXL)" style="mix-blend-mode:screen"/>
  <circle cx="250" cy="150" r="88" fill="#69F0AE" opacity="0.32" filter="url(#blurL)" style="mix-blend-mode:screen"/>
  <circle cx="1010" cy="600" r="170" fill="#2A0722" opacity="0.45" filter="url(#blurXL)"/>

  <rect width="960" height="540" filter="url(#grain)" style="mix-blend-mode:overlay" opacity="0.4"/>

  <g filter="url(#blurM)">
    <circle cx="380" cy="290" r="145" fill="none" stroke="#FFFFFF" stroke-width="7" opacity="0.5"/>
    <circle cx="380" cy="290" r="145" fill="#FFFFFF" opacity="0.1"/>
    <circle cx="615" cy="290" r="105" fill="none" stroke="#FFFFFF" stroke-width="6" opacity="0.45"/>
    <circle cx="615" cy="290" r="105" fill="#FFFFFF" opacity="0.12"/>
  </g>

  <!-- Wireframe overlay: Centered Box, even 50/50 split vs proportional-by-income split -->
  <g stroke="#FFFFFF" stroke-width="0.75" opacity="0.15">
    <rect x="144" y="108" width="672" height="324" fill="none" vector-effect="non-scaling-stroke"/>
    <line x1="368" y1="108" x2="368" y2="432" vector-effect="non-scaling-stroke"/>
    <line x1="592" y1="108" x2="592" y2="432" vector-effect="non-scaling-stroke"/>
    <line x1="144" y1="216" x2="816" y2="216" vector-effect="non-scaling-stroke"/>
    <line x1="144" y1="324" x2="816" y2="324" vector-effect="non-scaling-stroke"/>
  </g>
  <g stroke="#FFFFFF" fill="none" stroke-linecap="round">
    <!-- Even 50/50 split: centered divide (secondary, dashed reference) -->
    <line x1="144" y1="216" x2="816" y2="216" stroke-width="1" opacity="0.45" stroke-dasharray="4,4" vector-effect="non-scaling-stroke"/>
    <line x1="480" y1="216" x2="480" y2="270" stroke-width="1" opacity="0.45" stroke-dasharray="4,4" vector-effect="non-scaling-stroke"/>
    <!-- Proportional split: off-centre divide mirroring income share (primary) -->
    <line x1="144" y1="324" x2="816" y2="324" stroke-width="1.5" opacity="0.9" vector-effect="non-scaling-stroke"/>
    <line x1="592" y1="324" x2="592" y2="378" stroke-width="1.5" opacity="0.9" vector-effect="non-scaling-stroke"/>
  </g>
  <g fill="#FFFFFF">
    <circle cx="480" cy="216" r="5" opacity="0.25"/>
    <circle cx="480" cy="216" r="1.6" opacity="0.8"/>
    <circle cx="592" cy="324" r="6" opacity="0.3"/>
    <circle cx="592" cy="324" r="2" opacity="1"/>
    <circle cx="144" cy="324" r="5" opacity="0.22"/>
    <circle cx="144" cy="324" r="1.6" opacity="0.75"/>
    <circle cx="816" cy="324" r="5" opacity="0.22"/>
    <circle cx="816" cy="324" r="1.6" opacity="0.75"/>
  </g>
</svg>
