<svg xmlns="http://www.w3.org/2000/svg" width="960" height="540" viewBox="0 0 960 540">
  <defs>
    <linearGradient id="bg" x1="-10%" y1="30%" x2="110%" y2="70%">
      <stop offset="0%" stop-color="#3B1070"/>
      <stop offset="100%" stop-color="#6A1B9A"/>
    </linearGradient>
    <filter id="blurXL" x="-100%" y="-100%" width="300%" height="300%">
      <feGaussianBlur stdDeviation="65"/>
    </filter>
    <filter id="blurL" x="-100%" y="-100%" width="300%" height="300%">
      <feGaussianBlur stdDeviation="38"/>
    </filter>
    <filter id="blurM" x="-100%" y="-100%" width="300%" height="300%">
      <feGaussianBlur stdDeviation="24"/>
    </filter>
    <filter id="grain">
      <feTurbulence type="fractalNoise" baseFrequency="0.9" numOctaves="4" stitchTiles="stitch" result="noise"/>
      <feColorMatrix in="noise" type="matrix" values="0 0 0 0 1  0 0 0 0 1  0 0 0 0 1  0 0 0 0.6 0"/>
    </filter>
  </defs>

  <rect width="960" height="540" fill="url(#bg)"/>

  <circle cx="-60" cy="200" r="220" fill="#F06292" opacity="0.7" filter="url(#blurXL)" style="mix-blend-mode:screen"/>
  <circle cx="340" cy="260" r="160" fill="#F8BBD0" opacity="0.5" filter="url(#blurXL)" style="mix-blend-mode:screen"/>
  <circle cx="640" cy="130" r="80" fill="#EC407A" opacity="0.32" filter="url(#blurL)" style="mix-blend-mode:screen"/>
  <circle cx="1010" cy="440" r="170" fill="#22073F" opacity="0.45" filter="url(#blurXL)"/>

  <rect width="960" height="540" filter="url(#grain)" style="mix-blend-mode:overlay" opacity="0.4"/>

  <g filter="url(#blurM)">
  <circle cx="300" cy="180" r="60" fill="#FFFFFF" opacity="0.22"/>
  <circle cx="430" cy="140" r="34" fill="#FFFFFF" opacity="0.28"/>
  <circle cx="560" cy="230" r="90" fill="none" stroke="#FFFFFF" stroke-width="7" opacity="0.42"/>
  <circle cx="720" cy="390" r="48" fill="#FFFFFF" opacity="0.16"/>
  <circle cx="330" cy="410" r="70" fill="none" stroke="#FFFFFF" stroke-width="6" opacity="0.32"/>
  </g>

  <!-- Wireframe overlay: Categorical Matrix, four equal lanes each with a distinct method archetype -->
  <g stroke="#FFFFFF" stroke-width="0.75" opacity="0.15">
    <rect x="144" y="108" width="672" height="324" fill="none" vector-effect="non-scaling-stroke"/>
    <line x1="312" y1="108" x2="312" y2="432" vector-effect="non-scaling-stroke"/>
    <line x1="480" y1="108" x2="480" y2="432" vector-effect="non-scaling-stroke"/>
    <line x1="648" y1="108" x2="648" y2="432" vector-effect="non-scaling-stroke"/>
  </g>

  <!-- Lane 1: solid column block -->
  <rect x="192" y="216" width="72" height="162" fill="#FFFFFF" opacity="0.16" stroke="#FFFFFF" stroke-width="1.5" stroke-opacity="0.9" vector-effect="non-scaling-stroke"/>

  <!-- Lane 2: precise 50/50 split circle -->
  <g stroke="#FFFFFF" fill="none" stroke-width="1.5" opacity="0.9">
    <path d="M396,216 A54,54 0 0,0 396,324 Z" fill="#FFFFFF" opacity="0.18" stroke="none"/>
    <circle cx="396" cy="270" r="54" vector-effect="non-scaling-stroke"/>
    <line x1="396" y1="216" x2="396" y2="324" vector-effect="non-scaling-stroke"/>
  </g>

  <!-- Lane 3: stepped tier -->
  <path d="M480,378 L564,378 L564,324 L648,324 L648,270" stroke="#FFFFFF" stroke-width="1.5" opacity="0.9" fill="none" stroke-linecap="round" vector-effect="non-scaling-stroke"/>

  <!-- Lane 4: adaptive wave -->
  <path d="M648,324 Q690,270 732,324 Q774,378 816,324" stroke="#FFFFFF" stroke-width="1.5" opacity="0.9" fill="none" stroke-linecap="round" vector-effect="non-scaling-stroke"/>
  <g fill="#FFFFFF">
    <circle cx="816" cy="324" r="6" opacity="0.3"/>
    <circle cx="816" cy="324" r="2" opacity="1"/>
  </g>
</svg>
