<svg xmlns="http://www.w3.org/2000/svg" width="960" height="540" viewBox="0 0 960 540">
  <defs>
    <linearGradient id="bg" x1="5%" y1="-10%" x2="95%" y2="110%">
      <stop offset="0%" stop-color="#0A2472"/>
      <stop offset="100%" stop-color="#1E3A8A"/>
    </linearGradient>
    <filter id="blurXL" x="-100%" y="-100%" width="300%" height="300%">
      <feGaussianBlur stdDeviation="65"/>
    </filter>
    <filter id="blurL" x="-100%" y="-100%" width="300%" height="300%">
      <feGaussianBlur stdDeviation="38"/>
    </filter>
    <filter id="blurM" x="-100%" y="-100%" width="300%" height="300%">
      <feGaussianBlur stdDeviation="24"/>
    </filter>
    <filter id="grain">
      <feTurbulence type="fractalNoise" baseFrequency="0.9" numOctaves="4" stitchTiles="stitch" result="noise"/>
      <feColorMatrix in="noise" type="matrix" values="0 0 0 0 1  0 0 0 0 1  0 0 0 0 1  0 0 0 0.6 0"/>
    </filter>
  </defs>

  <rect width="960" height="540" fill="url(#bg)"/>

  <circle cx="-60" cy="-60" r="220" fill="#7C4DFF" opacity="0.7" filter="url(#blurXL)" style="mix-blend-mode:screen"/>
  <circle cx="300" cy="250" r="160" fill="#B39DDB" opacity="0.5" filter="url(#blurXL)" style="mix-blend-mode:screen"/>
  <circle cx="590" cy="380" r="80" fill="#536DFE" opacity="0.32" filter="url(#blurL)" style="mix-blend-mode:screen"/>
  <circle cx="1020" cy="590" r="190" fill="#050E33" opacity="0.45" filter="url(#blurXL)"/>

  <rect width="960" height="540" filter="url(#grain)" style="mix-blend-mode:overlay" opacity="0.4"/>

  <g filter="url(#blurM)">
  <circle cx="250" cy="210" r="70" fill="#FFFFFF" opacity="0.24"/>
  <circle cx="390" cy="280" r="46" fill="#FFFFFF" opacity="0.2"/>
  <circle cx="500" cy="350" r="30" fill="#FFFFFF" opacity="0.16"/>
  <circle cx="600" cy="410" r="18" fill="#FFFFFF" opacity="0.14"/>
  </g>

  <!-- v1 UI ghost accent (~10%) -->
  <g opacity="0.16" transform="translate(660,346)">
    <rect x="0" y="0" width="240" height="150" rx="10" fill="#FFFFFF"/>
    <rect x="20" y="24" width="120" height="9" rx="4.5" fill="#2A2522" opacity="0.65"/>
    <rect x="20" y="46" width="86" height="20" rx="4" fill="#2A2522" opacity="0.85"/>
    <rect x="20" y="90" width="200" height="6" rx="3" fill="#E8EAF6"/>
    <rect x="20" y="90" width="132" height="6" rx="3" fill="#536DFE"/>
    <rect x="20" y="108" width="200" height="6" rx="3" fill="#E8EAF6"/>
    <rect x="20" y="108" width="88" height="6" rx="3" fill="#536DFE" opacity="0.75"/>
    <rect x="20" y="126" width="200" height="6" rx="3" fill="#E8EAF6"/>
    <rect x="20" y="126" width="58" height="6" rx="3" fill="#536DFE" opacity="0.55"/>
  </g>
</svg>
