<svg xmlns="http://www.w3.org/2000/svg" width="960" height="540" viewBox="0 0 960 540">
  <defs>
    <linearGradient id="bg" x1="-10%" y1="30%" x2="110%" y2="70%">
      <stop offset="0%" stop-color="#3B1070"/>
      <stop offset="100%" stop-color="#6A1B9A"/>
    </linearGradient>
    <filter id="blurXL" x="-100%" y="-100%" width="300%" height="300%">
      <feGaussianBlur stdDeviation="65"/>
    </filter>
    <filter id="blurL" x="-100%" y="-100%" width="300%" height="300%">
      <feGaussianBlur stdDeviation="38"/>
    </filter>
    <filter id="blurM" x="-100%" y="-100%" width="300%" height="300%">
      <feGaussianBlur stdDeviation="24"/>
    </filter>
    <filter id="grain">
      <feTurbulence type="fractalNoise" baseFrequency="0.9" numOctaves="4" stitchTiles="stitch" result="noise"/>
      <feColorMatrix in="noise" type="matrix" values="0 0 0 0 1  0 0 0 0 1  0 0 0 0 1  0 0 0 0.6 0"/>
    </filter>
  </defs>

  <rect width="960" height="540" fill="url(#bg)"/>

  <circle cx="-60" cy="200" r="220" fill="#F06292" opacity="0.7" filter="url(#blurXL)" style="mix-blend-mode:screen"/>
  <circle cx="340" cy="260" r="160" fill="#F8BBD0" opacity="0.5" filter="url(#blurXL)" style="mix-blend-mode:screen"/>
  <circle cx="640" cy="130" r="80" fill="#EC407A" opacity="0.32" filter="url(#blurL)" style="mix-blend-mode:screen"/>
  <circle cx="1010" cy="440" r="170" fill="#22073F" opacity="0.45" filter="url(#blurXL)"/>

  <rect width="960" height="540" filter="url(#grain)" style="mix-blend-mode:overlay" opacity="0.4"/>

  <g filter="url(#blurM)">
  <circle cx="300" cy="180" r="60" fill="#FFFFFF" opacity="0.22"/>
  <circle cx="430" cy="140" r="34" fill="#FFFFFF" opacity="0.28"/>
  <circle cx="560" cy="230" r="90" fill="none" stroke="#FFFFFF" stroke-width="7" opacity="0.42"/>
  <circle cx="720" cy="390" r="48" fill="#FFFFFF" opacity="0.16"/>
  <circle cx="330" cy="410" r="70" fill="none" stroke="#FFFFFF" stroke-width="6" opacity="0.32"/>
  </g>

  <!-- UI accent: abstract bar-chart glyph (~10%) -->
  <g opacity="0.45" stroke="#FFFFFF" stroke-width="10" stroke-linecap="round" fill="none" transform="translate(764,458)">
    <line x1="0" y1="0" x2="0" y2="-30"/>
    <line x1="36" y1="0" x2="36" y2="-50"/>
    <line x1="72" y1="0" x2="72" y2="-72"/>
    <line x1="108" y1="0" x2="108" y2="-96"/>
  </g>
</svg>
