<svg xmlns="http://www.w3.org/2000/svg" width="960" height="540" viewBox="0 0 960 540">
  <defs>
    <linearGradient id="bg" x1="50%" y1="-15%" x2="50%" y2="115%">
      <stop offset="0%" stop-color="#00352C"/>
      <stop offset="100%" stop-color="#00695C"/>
    </linearGradient>
    <filter id="blurXL" x="-100%" y="-100%" width="300%" height="300%">
      <feGaussianBlur stdDeviation="65"/>
    </filter>
    <filter id="blurL" x="-100%" y="-100%" width="300%" height="300%">
      <feGaussianBlur stdDeviation="38"/>
    </filter>
    <filter id="blurM" x="-100%" y="-100%" width="300%" height="300%">
      <feGaussianBlur stdDeviation="24"/>
    </filter>
    <filter id="grain">
      <feTurbulence type="fractalNoise" baseFrequency="0.9" numOctaves="4" stitchTiles="stitch" result="noise"/>
      <feColorMatrix in="noise" type="matrix" values="0 0 0 0 1  0 0 0 0 1  0 0 0 0 1  0 0 0 0.6 0"/>
    </filter>
  </defs>

  <rect width="960" height="540" fill="url(#bg)"/>

  <circle cx="520" cy="-60" r="230" fill="#29B6F6" opacity="0.7" filter="url(#blurXL)" style="mix-blend-mode:screen"/>
  <circle cx="480" cy="260" r="165" fill="#81D4FA" opacity="0.5" filter="url(#blurXL)" style="mix-blend-mode:screen"/>
  <circle cx="720" cy="430" r="85" fill="#00E5FF" opacity="0.32" filter="url(#blurL)" style="mix-blend-mode:screen"/>
  <circle cx="260" cy="610" r="160" fill="#002018" opacity="0.45" filter="url(#blurXL)"/>

  <rect width="960" height="540" filter="url(#grain)" style="mix-blend-mode:overlay" opacity="0.4"/>

  <g filter="url(#blurM)">
  <circle cx="400" cy="290" r="150" fill="none" stroke="#FFFFFF" stroke-width="7" opacity="0.5"/>
  <circle cx="400" cy="290" r="150" fill="#FFFFFF" opacity="0.1"/>
  <circle cx="600" cy="250" r="140" fill="none" stroke="#FFFFFF" stroke-width="6" opacity="0.3"/>
  <ellipse cx="500" cy="270" rx="55" ry="130" fill="#FFFFFF" opacity="0.16"/>
  </g>

  <!-- UI accent: abstract bar-chart glyph (~10%) -->
  <g opacity="0.45" stroke="#FFFFFF" stroke-width="10" stroke-linecap="round" fill="none" transform="translate(764,458)">
    <line x1="0" y1="0" x2="0" y2="-30"/>
    <line x1="36" y1="0" x2="36" y2="-50"/>
    <line x1="72" y1="0" x2="72" y2="-72"/>
    <line x1="108" y1="0" x2="108" y2="-96"/>
  </g>
</svg>
