<svg xmlns="http://www.w3.org/2000/svg" width="960" height="540" viewBox="0 0 960 540">
  <defs>
    <linearGradient id="bg" x1="-5%" y1="-15%" x2="95%" y2="115%">
      <stop offset="0%" stop-color="#1A0E4D"/>
      <stop offset="100%" stop-color="#512DA8"/>
    </linearGradient>
    <filter id="blurXL" x="-100%" y="-100%" width="300%" height="300%">
      <feGaussianBlur stdDeviation="65"/>
    </filter>
    <filter id="blurL" x="-100%" y="-100%" width="300%" height="300%">
      <feGaussianBlur stdDeviation="38"/>
    </filter>
    <filter id="blurM" x="-100%" y="-100%" width="300%" height="300%">
      <feGaussianBlur stdDeviation="24"/>
    </filter>
    <filter id="grain">
      <feTurbulence type="fractalNoise" baseFrequency="0.9" numOctaves="4" stitchTiles="stitch" result="noise"/>
      <feColorMatrix in="noise" type="matrix" values="0 0 0 0 1  0 0 0 0 1  0 0 0 0 1  0 0 0 0.6 0"/>
    </filter>
  </defs>

  <rect width="960" height="540" fill="url(#bg)"/>

  <circle cx="20" cy="-50" r="240" fill="#F48FB1" opacity="0.7" filter="url(#blurXL)" style="mix-blend-mode:screen"/>
  <circle cx="340" cy="220" r="165" fill="#F8BBD0" opacity="0.5" filter="url(#blurXL)" style="mix-blend-mode:screen"/>
  <circle cx="600" cy="380" r="95" fill="#EC407A" opacity="0.32" filter="url(#blurL)" style="mix-blend-mode:screen"/>
  <circle cx="800" cy="500" r="55" fill="#0D0726" opacity="0.45" filter="url(#blurXL)"/>

  <rect width="960" height="540" filter="url(#grain)" style="mix-blend-mode:overlay" opacity="0.4"/>

  <g filter="url(#blurM)">
  <circle cx="220" cy="330" r="72" fill="none" stroke="#FFFFFF" stroke-width="7" opacity="0.48"/>
  <circle cx="380" cy="380" r="52" fill="none" stroke="#FFFFFF" stroke-width="6" opacity="0.38"/>
  <circle cx="510" cy="420" r="34" fill="none" stroke="#FFFFFF" stroke-width="6" opacity="0.3"/>
  <circle cx="610" cy="450" r="18" fill="#FFFFFF" opacity="0.32"/>
  </g>

  <!-- Wireframe overlay: staircase debt payoff to zero -->
  <g stroke="#FFFFFF" fill="none" stroke-width="2" stroke-linecap="round" stroke-linejoin="round" opacity="0.6">
    <path d="M560,180 L620,180 L620,240 L680,240 L680,300 L740,300 L740,360 L800,360 L800,410 L860,410 L860,430 L890,430"/>
  </g>
  <g fill="#FFFFFF" opacity="0.85">
    <circle cx="560" cy="180" r="4"/>
    <circle cx="890" cy="430" r="5"/>
  </g>
</svg>
