<svg xmlns="http://www.w3.org/2000/svg" width="960" height="540" viewBox="0 0 960 540">
  <defs>
    <linearGradient id="bg" x1="20%" y1="110%" x2="80%" y2="-10%">
      <stop offset="0%" stop-color="#0D1155"/>
      <stop offset="100%" stop-color="#283593"/>
    </linearGradient>
    <filter id="blurXL" x="-100%" y="-100%" width="300%" height="300%">
      <feGaussianBlur stdDeviation="65"/>
    </filter>
    <filter id="blurL" x="-100%" y="-100%" width="300%" height="300%">
      <feGaussianBlur stdDeviation="38"/>
    </filter>
    <filter id="blurM" x="-100%" y="-100%" width="300%" height="300%">
      <feGaussianBlur stdDeviation="24"/>
    </filter>
    <filter id="grain">
      <feTurbulence type="fractalNoise" baseFrequency="0.9" numOctaves="4" stitchTiles="stitch" result="noise"/>
      <feColorMatrix in="noise" type="matrix" values="0 0 0 0 1  0 0 0 0 1  0 0 0 0 1  0 0 0 0.6 0"/>
    </filter>
  </defs>

  <rect width="960" height="540" fill="url(#bg)"/>

  <circle cx="660" cy="170" r="220" fill="#4FC3F7" opacity="0.7" filter="url(#blurXL)" style="mix-blend-mode:screen"/>
  <circle cx="380" cy="610" r="190" fill="#B3E5FC" opacity="0.5" filter="url(#blurXL)" style="mix-blend-mode:screen"/>
  <circle cx="510" cy="350" r="90" fill="#18FFFF" opacity="0.32" filter="url(#blurL)" style="mix-blend-mode:screen"/>
  <circle cx="-60" cy="60" r="150" fill="#070830" opacity="0.45" filter="url(#blurXL)"/>

  <rect width="960" height="540" filter="url(#grain)" style="mix-blend-mode:overlay" opacity="0.4"/>

  <g filter="url(#blurM)">
  <g transform="translate(460, 300)">
    <circle cx="0" cy="0" r="180" fill="none" stroke="#FFFFFF" stroke-width="5" opacity="0.26"/>
    <circle cx="0" cy="0" r="130" fill="none" stroke="#FFFFFF" stroke-width="5" opacity="0.36"/>
    <circle cx="0" cy="0" r="80" fill="none" stroke="#FFFFFF" stroke-width="7" opacity="0.5"/>
    <circle cx="0" cy="0" r="36" fill="#FFFFFF" opacity="0.6"/>
  </g>
  </g>

  <!-- Wireframe overlay: ascending fund ladder -->
  <g stroke="#FFFFFF" fill="none" stroke-width="2" stroke-linecap="round" opacity="0.6">
    <line x1="630" y1="420" x2="630" y2="195"/>
    <line x1="630" y1="420" x2="720" y2="420"/>
    <line x1="630" y1="375" x2="750" y2="375"/>
    <line x1="630" y1="330" x2="780" y2="330"/>
    <line x1="630" y1="285" x2="810" y2="285"/>
    <line x1="630" y1="240" x2="835" y2="240"/>
    <line x1="630" y1="195" x2="860" y2="195"/>
  </g>
  <circle cx="860" cy="195" r="5" fill="#FFFFFF" opacity="0.85"/>
</svg>
