<svg xmlns="http://www.w3.org/2000/svg" width="960" height="540" viewBox="0 0 960 540">
  <defs>
    <linearGradient id="bg" x1="50%" y1="-15%" x2="50%" y2="115%">
      <stop offset="0%" stop-color="#00352C"/>
      <stop offset="100%" stop-color="#00695C"/>
    </linearGradient>
    <filter id="blurXL" x="-100%" y="-100%" width="300%" height="300%">
      <feGaussianBlur stdDeviation="65"/>
    </filter>
    <filter id="blurL" x="-100%" y="-100%" width="300%" height="300%">
      <feGaussianBlur stdDeviation="38"/>
    </filter>
    <filter id="blurM" x="-100%" y="-100%" width="300%" height="300%">
      <feGaussianBlur stdDeviation="24"/>
    </filter>
    <filter id="grain">
      <feTurbulence type="fractalNoise" baseFrequency="0.9" numOctaves="4" stitchTiles="stitch" result="noise"/>
      <feColorMatrix in="noise" type="matrix" values="0 0 0 0 1  0 0 0 0 1  0 0 0 0 1  0 0 0 0.6 0"/>
    </filter>
  </defs>

  <rect width="960" height="540" fill="url(#bg)"/>

  <circle cx="520" cy="-60" r="230" fill="#29B6F6" opacity="0.7" filter="url(#blurXL)" style="mix-blend-mode:screen"/>
  <circle cx="480" cy="260" r="165" fill="#81D4FA" opacity="0.5" filter="url(#blurXL)" style="mix-blend-mode:screen"/>
  <circle cx="720" cy="430" r="85" fill="#00E5FF" opacity="0.32" filter="url(#blurL)" style="mix-blend-mode:screen"/>
  <circle cx="260" cy="610" r="160" fill="#002018" opacity="0.45" filter="url(#blurXL)"/>

  <rect width="960" height="540" filter="url(#grain)" style="mix-blend-mode:overlay" opacity="0.4"/>

  <g filter="url(#blurM)">
  <circle cx="400" cy="290" r="150" fill="none" stroke="#FFFFFF" stroke-width="7" opacity="0.5"/>
  <circle cx="400" cy="290" r="150" fill="#FFFFFF" opacity="0.1"/>
  <circle cx="600" cy="250" r="140" fill="none" stroke="#FFFFFF" stroke-width="6" opacity="0.3"/>
  <ellipse cx="500" cy="270" rx="55" ry="130" fill="#FFFFFF" opacity="0.16"/>
  </g>

  <!-- Wireframe overlay: manual steps vs. automated flow, anchored in a centered safe zone -->
  <g stroke="#FFFFFF" stroke-width="0.75" opacity="0.15">
    <rect x="240" y="162" width="480" height="216" fill="none"/>
    <line x1="400" y1="162" x2="400" y2="378"/>
    <line x1="560" y1="162" x2="560" y2="378"/>
    <line x1="240" y1="234" x2="720" y2="234"/>
    <line x1="240" y1="306" x2="720" y2="306"/>
  </g>
  <g stroke="#FFFFFF" fill="none" stroke-linecap="round" stroke-linejoin="round">
    <line x1="480" y1="162" x2="480" y2="378" stroke-width="1" opacity="0.35" stroke-dasharray="4,4"/>
    <path d="M280,350 L340,350 L340,300 L400,300 L400,250 L460,250 L460,200" stroke-width="1.5" opacity="0.92"/>
    <path d="M500,350 C560,350 600,260 680,200" stroke-width="1.5" opacity="0.92"/>
  </g>
  <g fill="#FFFFFF">
    <circle cx="460" cy="200" r="6" opacity="0.3"/>
    <circle cx="460" cy="200" r="2" opacity="1"/>
    <circle cx="680" cy="200" r="6" opacity="0.3"/>
    <circle cx="680" cy="200" r="2" opacity="1"/>
  </g>
</svg>
