<svg xmlns="http://www.w3.org/2000/svg" width="960" height="540" viewBox="0 0 960 540">
  <defs>
    <linearGradient id="bg" x1="20%" y1="110%" x2="80%" y2="-10%">
      <stop offset="0%" stop-color="#0D1155"/>
      <stop offset="100%" stop-color="#283593"/>
    </linearGradient>
    <filter id="blurXL" x="-100%" y="-100%" width="300%" height="300%">
      <feGaussianBlur stdDeviation="65"/>
    </filter>
    <filter id="blurL" x="-100%" y="-100%" width="300%" height="300%">
      <feGaussianBlur stdDeviation="38"/>
    </filter>
    <filter id="blurM" x="-100%" y="-100%" width="300%" height="300%">
      <feGaussianBlur stdDeviation="24"/>
    </filter>
    <filter id="grain">
      <feTurbulence type="fractalNoise" baseFrequency="0.9" numOctaves="4" stitchTiles="stitch" result="noise"/>
      <feColorMatrix in="noise" type="matrix" values="0 0 0 0 1  0 0 0 0 1  0 0 0 0 1  0 0 0 0.6 0"/>
    </filter>
  </defs>

  <rect width="960" height="540" fill="url(#bg)"/>

  <circle cx="660" cy="170" r="220" fill="#4FC3F7" opacity="0.7" filter="url(#blurXL)" style="mix-blend-mode:screen"/>
  <circle cx="380" cy="610" r="190" fill="#B3E5FC" opacity="0.5" filter="url(#blurXL)" style="mix-blend-mode:screen"/>
  <circle cx="510" cy="350" r="90" fill="#18FFFF" opacity="0.32" filter="url(#blurL)" style="mix-blend-mode:screen"/>
  <circle cx="-60" cy="60" r="150" fill="#070830" opacity="0.45" filter="url(#blurXL)"/>

  <rect width="960" height="540" filter="url(#grain)" style="mix-blend-mode:overlay" opacity="0.4"/>

  <g filter="url(#blurM)">
  <g transform="translate(460, 300)">
    <circle cx="0" cy="0" r="180" fill="none" stroke="#FFFFFF" stroke-width="5" opacity="0.26"/>
    <circle cx="0" cy="0" r="130" fill="none" stroke="#FFFFFF" stroke-width="5" opacity="0.36"/>
    <circle cx="0" cy="0" r="80" fill="none" stroke="#FFFFFF" stroke-width="7" opacity="0.5"/>
    <circle cx="0" cy="0" r="36" fill="#FFFFFF" opacity="0.6"/>
  </g>
  </g>

  <!-- Wireframe overlay: Type A (infinite baseline, open top), ascending fund ladder -->
  <g stroke="#FFFFFF" stroke-width="0.75" opacity="0.15">
    <line x1="144" y1="108" x2="144" y2="432" vector-effect="non-scaling-stroke"/>
    <line x1="368" y1="108" x2="368" y2="432" vector-effect="non-scaling-stroke"/>
    <line x1="592" y1="108" x2="592" y2="432" vector-effect="non-scaling-stroke"/>
    <line x1="816" y1="108" x2="816" y2="432" vector-effect="non-scaling-stroke"/>
    <line x1="144" y1="216" x2="816" y2="216" vector-effect="non-scaling-stroke"/>
    <line x1="144" y1="324" x2="816" y2="324" vector-effect="non-scaling-stroke"/>
  </g>
  <line x1="0" y1="432" x2="960" y2="432" stroke="#FFFFFF" stroke-width="1" opacity="0.35" vector-effect="non-scaling-stroke"/>
  <g stroke="#FFFFFF" fill="none" stroke-linecap="round">
    <line x1="144" y1="432" x2="144" y2="162" stroke-width="1" opacity="0.45" vector-effect="non-scaling-stroke"/>
    <line x1="144" y1="432" x2="256" y2="432" stroke-width="1.5" opacity="0.82" vector-effect="non-scaling-stroke"/>
    <line x1="144" y1="378" x2="368" y2="378" stroke-width="1.5" opacity="0.85" vector-effect="non-scaling-stroke"/>
    <line x1="144" y1="324" x2="480" y2="324" stroke-width="1.5" opacity="0.88" vector-effect="non-scaling-stroke"/>
    <line x1="144" y1="270" x2="592" y2="270" stroke-width="1.5" opacity="0.91" vector-effect="non-scaling-stroke"/>
    <line x1="144" y1="216" x2="704" y2="216" stroke-width="1.5" opacity="0.94" vector-effect="non-scaling-stroke"/>
    <line x1="144" y1="162" x2="816" y2="162" stroke-width="1.5" opacity="0.97" vector-effect="non-scaling-stroke"/>
  </g>
  <g fill="#FFFFFF">
    <circle cx="816" cy="162" r="6" opacity="0.3"/>
    <circle cx="816" cy="162" r="2" opacity="1"/>
  </g>
</svg>
