<svg xmlns="http://www.w3.org/2000/svg" width="960" height="540" viewBox="0 0 960 540">
  <defs>
    <linearGradient id="bg" x1="15%" y1="-10%" x2="85%" y2="110%">
      <stop offset="0%" stop-color="#0B3D91"/>
      <stop offset="100%" stop-color="#1565C0"/>
    </linearGradient>
    <filter id="blurXL" x="-100%" y="-100%" width="300%" height="300%">
      <feGaussianBlur stdDeviation="65"/>
    </filter>
    <filter id="blurL" x="-100%" y="-100%" width="300%" height="300%">
      <feGaussianBlur stdDeviation="38"/>
    </filter>
    <filter id="blurM" x="-100%" y="-100%" width="300%" height="300%">
      <feGaussianBlur stdDeviation="24"/>
    </filter>
    <filter id="grain">
      <feTurbulence type="fractalNoise" baseFrequency="0.9" numOctaves="4" stitchTiles="stitch" result="noise"/>
      <feColorMatrix in="noise" type="matrix" values="0 0 0 0 1  0 0 0 0 1  0 0 0 0 1  0 0 0 0.6 0"/>
    </filter>
  </defs>

  <rect width="960" height="540" fill="url(#bg)"/>

  <circle cx="870" cy="-30" r="250" fill="#4FC3F7" opacity="0.7" filter="url(#blurXL)" style="mix-blend-mode:screen"/>
  <circle cx="560" cy="230" r="160" fill="#80D8FF" opacity="0.5" filter="url(#blurXL)" style="mix-blend-mode:screen"/>
  <circle cx="300" cy="380" r="95" fill="#18FFFF" opacity="0.32" filter="url(#blurL)" style="mix-blend-mode:screen"/>
  <circle cx="-70" cy="560" r="170" fill="#0D47A1" opacity="0.45" filter="url(#blurXL)"/>

  <rect width="960" height="540" filter="url(#grain)" style="mix-blend-mode:overlay" opacity="0.4"/>

  <g filter="url(#blurM)">
  <g opacity="0.9">
    <circle cx="330" cy="330" r="110" fill="#FFFFFF" opacity="0.22"/>
    <circle cx="330" cy="330" r="110" fill="none" stroke="#FFFFFF" stroke-width="7" opacity="0.5"/>
    <circle cx="520" cy="380" r="78" fill="#FFFFFF" opacity="0.15"/>
    <circle cx="520" cy="380" r="78" fill="none" stroke="#FFFFFF" stroke-width="6" opacity="0.38"/>
    <circle cx="660" cy="410" r="50" fill="#FFFFFF" opacity="0.11"/>
    <circle cx="660" cy="410" r="50" fill="none" stroke="#FFFFFF" stroke-width="6" opacity="0.28"/>
  </g>
  </g>

  <!-- Wireframe overlay: 50/30/20 split, anchored in a centered safe zone -->
  <g stroke="#FFFFFF" stroke-width="0.75" opacity="0.15">
    <rect x="240" y="162" width="480" height="216" fill="none"/>
    <line x1="400" y1="162" x2="400" y2="378"/>
    <line x1="560" y1="162" x2="560" y2="378"/>
    <line x1="240" y1="234" x2="720" y2="234"/>
    <line x1="240" y1="306" x2="720" y2="306"/>
  </g>
  <g stroke="#FFFFFF" fill="none" stroke-linecap="round">
    <line x1="240" y1="378" x2="720" y2="378" stroke-width="1" opacity="0.45"/>
    <line x1="340" y1="378" x2="340" y2="293" stroke-width="1.5" opacity="0.95"/>
    <line x1="480" y1="378" x2="480" y2="327" stroke-width="1.5" opacity="0.95"/>
    <line x1="620" y1="378" x2="620" y2="344" stroke-width="1.5" opacity="0.95"/>
  </g>
  <g fill="#FFFFFF">
    <circle cx="340" cy="293" r="6" opacity="0.3"/>
    <circle cx="340" cy="293" r="2" opacity="1"/>
    <circle cx="480" cy="327" r="6" opacity="0.3"/>
    <circle cx="480" cy="327" r="2" opacity="1"/>
    <circle cx="620" cy="344" r="6" opacity="0.3"/>
    <circle cx="620" cy="344" r="2" opacity="1"/>
  </g>
</svg>
