<svg xmlns="http://www.w3.org/2000/svg" width="960" height="540" viewBox="0 0 960 540">
  <defs>
    <linearGradient id="bg" x1="0%" y1="0%" x2="100%" y2="100%">
      <stop offset="0%" stop-color="#E3F2FD"/>
      <stop offset="100%" stop-color="#BBDEFB"/>
    </linearGradient>
    <linearGradient id="blob1" x1="0%" y1="0%" x2="100%" y2="100%">
      <stop offset="0%" stop-color="#196EDD" stop-opacity="0.5"/>
      <stop offset="100%" stop-color="#64B5F6" stop-opacity="0.25"/>
    </linearGradient>
    <linearGradient id="blob2" x1="100%" y1="0%" x2="0%" y2="100%">
      <stop offset="0%" stop-color="#1259B8" stop-opacity="0.35"/>
      <stop offset="100%" stop-color="#90CAF9" stop-opacity="0.15"/>
    </linearGradient>
    <linearGradient id="blob3" x1="0%" y1="100%" x2="100%" y2="0%">
      <stop offset="0%" stop-color="#7E57C2" stop-opacity="0.3"/>
      <stop offset="100%" stop-color="#CE93D8" stop-opacity="0.1"/>
    </linearGradient>
    <filter id="blur1" x="-50%" y="-50%" width="200%" height="200%">
      <feGaussianBlur stdDeviation="60"/>
    </filter>
    <filter id="blur2" x="-50%" y="-50%" width="200%" height="200%">
      <feGaussianBlur stdDeviation="45"/>
    </filter>
    <filter id="blur3" x="-50%" y="-50%" width="200%" height="200%">
      <feGaussianBlur stdDeviation="55"/>
    </filter>
    <filter id="grain">
      <feTurbulence type="fractalNoise" baseFrequency="0.65" numOctaves="3" stitchTiles="stitch"/>
      <feColorMatrix type="saturate" values="0"/>
      <feBlend in="SourceGraphic" mode="multiply"/>
    </filter>
  </defs>

  <rect width="960" height="540" fill="url(#bg)"/>
  <ellipse cx="300" cy="120" rx="300" ry="180" fill="url(#blob1)" filter="url(#blur1)"/>
  <ellipse cx="700" cy="80" rx="260" ry="160" fill="url(#blob2)" filter="url(#blur2)"/>
  <ellipse cx="480" cy="30" rx="220" ry="140" fill="url(#blob3)" filter="url(#blur3)"/>
  <circle cx="120" cy="250" r="120" fill="#196EDD" fill-opacity="0.06" filter="url(#blur2)"/>
  <circle cx="850" cy="60" r="130" fill="#7E57C2" fill-opacity="0.08" filter="url(#blur3)"/>
  <rect width="960" height="540" filter="url(#grain)" opacity="0.12"/>

  <!-- White card -->
  <rect x="120" y="68" width="720" height="490" rx="10" fill="white"/>

  <!-- Header -->
  <text x="164" y="130" font-family="system-ui, -apple-system, sans-serif" font-size="18" font-weight="600" fill="#2A2522">50 / 30 / 20 budget</text>
  <rect x="164" y="148" width="140" height="10" rx="5" fill="#EBEBEB"/>

  <!-- Three tall progress bars filling the card vertically -->
  <rect x="164" y="200" width="632" height="12" rx="6" fill="#F0EDEA"/>
  <rect x="164" y="200" width="632" height="12" rx="6" fill="#196EDD"/>

  <rect x="164" y="290" width="632" height="12" rx="6" fill="#F0EDEA"/>
  <rect x="164" y="290" width="380" height="12" rx="6" fill="#196EDD" fill-opacity="0.5"/>

  <rect x="164" y="380" width="632" height="12" rx="6" fill="#F0EDEA"/>
  <rect x="164" y="380" width="253" height="12" rx="6" fill="#196EDD" fill-opacity="0.25"/>

  <!-- Skeleton labels left-aligned under each bar -->
  <rect x="164" y="224" width="60" height="8" rx="4" fill="#EBEBEB"/>
  <rect x="164" y="314" width="52" height="8" rx="4" fill="#EBEBEB"/>
  <rect x="164" y="404" width="80" height="8" rx="4" fill="#EBEBEB"/>
</svg>
