<svg xmlns="http://www.w3.org/2000/svg" width="960" height="540" viewBox="0 0 960 540">
  <defs>
    <linearGradient id="bg" x1="15%" y1="-10%" x2="85%" y2="110%">
      <stop offset="0%" stop-color="#0B3D91"/>
      <stop offset="100%" stop-color="#1565C0"/>
    </linearGradient>
    <filter id="blurXL" x="-100%" y="-100%" width="300%" height="300%">
      <feGaussianBlur stdDeviation="65"/>
    </filter>
    <filter id="blurL" x="-100%" y="-100%" width="300%" height="300%">
      <feGaussianBlur stdDeviation="38"/>
    </filter>
    <filter id="blurM" x="-100%" y="-100%" width="300%" height="300%">
      <feGaussianBlur stdDeviation="24"/>
    </filter>
    <filter id="grain">
      <feTurbulence type="fractalNoise" baseFrequency="0.9" numOctaves="4" stitchTiles="stitch" result="noise"/>
      <feColorMatrix in="noise" type="matrix" values="0 0 0 0 1  0 0 0 0 1  0 0 0 0 1  0 0 0 0.6 0"/>
    </filter>
  </defs>

  <rect width="960" height="540" fill="url(#bg)"/>

  <circle cx="870" cy="-30" r="250" fill="#4FC3F7" opacity="0.7" filter="url(#blurXL)" style="mix-blend-mode:screen"/>
  <circle cx="560" cy="230" r="160" fill="#80D8FF" opacity="0.5" filter="url(#blurXL)" style="mix-blend-mode:screen"/>
  <circle cx="300" cy="380" r="95" fill="#18FFFF" opacity="0.32" filter="url(#blurL)" style="mix-blend-mode:screen"/>
  <circle cx="-70" cy="560" r="170" fill="#0D47A1" opacity="0.45" filter="url(#blurXL)"/>

  <rect width="960" height="540" filter="url(#grain)" style="mix-blend-mode:overlay" opacity="0.4"/>

  <g filter="url(#blurM)">
  <g opacity="0.9">
    <circle cx="330" cy="330" r="110" fill="#FFFFFF" opacity="0.22"/>
    <circle cx="330" cy="330" r="110" fill="none" stroke="#FFFFFF" stroke-width="7" opacity="0.5"/>
    <circle cx="520" cy="380" r="78" fill="#FFFFFF" opacity="0.15"/>
    <circle cx="520" cy="380" r="78" fill="none" stroke="#FFFFFF" stroke-width="6" opacity="0.38"/>
    <circle cx="660" cy="410" r="50" fill="#FFFFFF" opacity="0.11"/>
    <circle cx="660" cy="410" r="50" fill="none" stroke="#FFFFFF" stroke-width="6" opacity="0.28"/>
  </g>
  </g>

  <!-- v1 UI ghost accent (~10%) -->
  <g opacity="0.16" transform="translate(660,346)">
    <rect x="0" y="0" width="240" height="150" rx="10" fill="#FFFFFF"/>
    <rect x="20" y="24" width="120" height="9" rx="4.5" fill="#2A2522" opacity="0.65"/>
    <rect x="20" y="46" width="86" height="20" rx="4" fill="#2A2522" opacity="0.85"/>
    <rect x="20" y="90" width="200" height="6" rx="3" fill="#E8EAF6"/>
    <rect x="20" y="90" width="132" height="6" rx="3" fill="#18FFFF"/>
    <rect x="20" y="108" width="200" height="6" rx="3" fill="#E8EAF6"/>
    <rect x="20" y="108" width="88" height="6" rx="3" fill="#18FFFF" opacity="0.75"/>
    <rect x="20" y="126" width="200" height="6" rx="3" fill="#E8EAF6"/>
    <rect x="20" y="126" width="58" height="6" rx="3" fill="#18FFFF" opacity="0.55"/>
  </g>
</svg>
