<svg xmlns="http://www.w3.org/2000/svg" width="960" height="540" viewBox="0 0 960 540">
  <defs>
    <linearGradient id="bg" x1="90%" y1="105%" x2="10%" y2="-5%">
      <stop offset="0%" stop-color="#7B0D3F"/>
      <stop offset="100%" stop-color="#C2185B"/>
    </linearGradient>
    <filter id="blurXL" x="-100%" y="-100%" width="300%" height="300%">
      <feGaussianBlur stdDeviation="65"/>
    </filter>
    <filter id="blurL" x="-100%" y="-100%" width="300%" height="300%">
      <feGaussianBlur stdDeviation="38"/>
    </filter>
    <filter id="blurM" x="-100%" y="-100%" width="300%" height="300%">
      <feGaussianBlur stdDeviation="24"/>
    </filter>
    <filter id="grain">
      <feTurbulence type="fractalNoise" baseFrequency="0.9" numOctaves="4" stitchTiles="stitch" result="noise"/>
      <feColorMatrix in="noise" type="matrix" values="0 0 0 0 1  0 0 0 0 1  0 0 0 0 1  0 0 0 0.6 0"/>
    </filter>
  </defs>

  <rect width="960" height="540" fill="url(#bg)"/>

  <circle cx="1030" cy="570" r="250" fill="#90CAF9" opacity="0.7" filter="url(#blurXL)" style="mix-blend-mode:screen"/>
  <circle cx="650" cy="340" r="165" fill="#B3E5FC" opacity="0.5" filter="url(#blurXL)" style="mix-blend-mode:screen"/>
  <circle cx="400" cy="200" r="90" fill="#18FFFF" opacity="0.32" filter="url(#blurL)" style="mix-blend-mode:screen"/>
  <circle cx="-70" cy="-50" r="150" fill="#4A0625" opacity="0.45" filter="url(#blurXL)"/>

  <rect width="960" height="540" filter="url(#grain)" style="mix-blend-mode:overlay" opacity="0.4"/>

  <g filter="url(#blurM)">
  <circle cx="410" cy="300" r="150" fill="none" stroke="#FFFFFF" stroke-width="7" opacity="0.5"/>
  <circle cx="410" cy="300" r="150" fill="#FFFFFF" opacity="0.12"/>
  <circle cx="590" cy="300" r="150" fill="none" stroke="#FFFFFF" stroke-width="7" opacity="0.5"/>
  <circle cx="590" cy="300" r="150" fill="#FFFFFF" opacity="0.12"/>
  </g>

  <!-- Wireframe overlay: two lines merging into one, grid-snapped in a centered safe zone -->
  <g stroke="#FFFFFF" stroke-width="0.75" opacity="0.15">
    <rect x="240" y="162" width="480" height="216" fill="none" vector-effect="non-scaling-stroke"/>
    <line x1="400" y1="162" x2="400" y2="378" vector-effect="non-scaling-stroke"/>
    <line x1="560" y1="162" x2="560" y2="378" vector-effect="non-scaling-stroke"/>
    <line x1="240" y1="234" x2="720" y2="234" vector-effect="non-scaling-stroke"/>
    <line x1="240" y1="306" x2="720" y2="306" vector-effect="non-scaling-stroke"/>
  </g>
  <g stroke="#FFFFFF" fill="none" stroke-linecap="round">
    <path d="M240,234 Q360,234 480,270" stroke-width="1.5" opacity="0.75" vector-effect="non-scaling-stroke"/>
    <path d="M240,342 Q360,342 480,270" stroke-width="1.5" opacity="0.75" vector-effect="non-scaling-stroke"/>
    <path d="M480,270 Q600,255 720,270" stroke-width="1.5" opacity="0.95" vector-effect="non-scaling-stroke"/>
  </g>
  <g fill="#FFFFFF">
    <circle cx="480" cy="270" r="6" opacity="0.3"/>
    <circle cx="480" cy="270" r="2" opacity="1"/>
    <circle cx="240" cy="234" r="5" opacity="0.22"/>
    <circle cx="240" cy="234" r="1.6" opacity="0.75"/>
    <circle cx="240" cy="342" r="5" opacity="0.22"/>
    <circle cx="240" cy="342" r="1.6" opacity="0.75"/>
  </g>
</svg>
