<svg xmlns="http://www.w3.org/2000/svg" width="960" height="540" viewBox="0 0 960 540">
  <defs>
    <linearGradient id="bg" x1="0%" y1="0%" x2="100%" y2="100%">
      <stop offset="0%" stop-color="#E8EDF2"/>
      <stop offset="100%" stop-color="#F5E6DC"/>
    </linearGradient>
    <linearGradient id="blob1" x1="0%" y1="0%" x2="100%" y2="100%">
      <stop offset="0%" stop-color="#2C3E50" stop-opacity="0.35"/>
      <stop offset="100%" stop-color="#5D7B9A" stop-opacity="0.15"/>
    </linearGradient>
    <linearGradient id="blob2" x1="100%" y1="0%" x2="0%" y2="100%">
      <stop offset="0%" stop-color="#78909C" stop-opacity="0.3"/>
      <stop offset="100%" stop-color="#B0BEC5" stop-opacity="0.12"/>
    </linearGradient>
    <linearGradient id="blob3" x1="0%" y1="100%" x2="100%" y2="0%">
      <stop offset="0%" stop-color="#2C3E50" stop-opacity="0.2"/>
      <stop offset="100%" stop-color="#78909C" stop-opacity="0.1"/>
    </linearGradient>
    <filter id="blur1" x="-50%" y="-50%" width="200%" height="200%">
      <feGaussianBlur stdDeviation="65"/>
    </filter>
    <filter id="blur2" x="-50%" y="-50%" width="200%" height="200%">
      <feGaussianBlur stdDeviation="50"/>
    </filter>
    <filter id="blur3" x="-50%" y="-50%" width="200%" height="200%">
      <feGaussianBlur stdDeviation="55"/>
    </filter>
    <filter id="grain">
      <feTurbulence type="fractalNoise" baseFrequency="0.65" numOctaves="3" stitchTiles="stitch"/>
      <feColorMatrix type="saturate" values="0"/>
      <feBlend in="SourceGraphic" mode="multiply"/>
    </filter>
    <clipPath id="card-clip">
      <rect x="120" y="68" width="720" height="490" rx="10"/>
    </clipPath>
    <linearGradient id="sky" x1="0%" y1="0%" x2="0%" y2="100%">
      <stop offset="0%" stop-color="#E8ECF0"/>
      <stop offset="60%" stop-color="#D5DDE5"/>
      <stop offset="100%" stop-color="#C8CDD4"/>
    </linearGradient>
    <filter id="land-blur" x="-20%" y="-20%" width="140%" height="140%">
      <feGaussianBlur stdDeviation="16"/>
    </filter>
  </defs>

  <rect width="960" height="540" fill="url(#bg)"/>
  <ellipse cx="220" cy="160" rx="320" ry="240" fill="url(#blob1)" filter="url(#blur1)"/>
  <ellipse cx="740" cy="380" rx="300" ry="220" fill="url(#blob2)" filter="url(#blur2)"/>
  <ellipse cx="480" cy="40" rx="240" ry="180" fill="url(#blob3)" filter="url(#blur3)"/>
  <circle cx="120" cy="440" r="150" fill="#2C3E50" fill-opacity="0.05" filter="url(#blur2)"/>
  <circle cx="860" cy="80" r="130" fill="#78909C" fill-opacity="0.06" filter="url(#blur3)"/>
  <rect width="960" height="540" filter="url(#grain)" opacity="0.1"/>

  <rect x="120" y="68" width="720" height="490" rx="10" fill="white"/>

  <g clip-path="url(#card-clip)">
    <!-- Coastal ocean horizon — calm water meeting misty sky -->
    <rect x="120" y="68" width="720" height="490" fill="url(#sky)"/>

    <!-- Horizon glow -->
    <ellipse cx="480" cy="300" rx="500" ry="30" fill="#B0BEC5" opacity="0.3" filter="url(#land-blur)"/>

    <!-- Water layers — horizontal bands getting darker toward foreground -->
    <rect x="120" y="310" width="720" height="40" fill="#78909C" opacity="0.08" filter="url(#land-blur)"/>
    <rect x="120" y="340" width="720" height="50" fill="#5D7B9A" opacity="0.12" filter="url(#land-blur)"/>
    <rect x="120" y="380" width="720" height="50" fill="#2C3E50" opacity="0.15" filter="url(#land-blur)"/>
    <rect x="120" y="420" width="720" height="60" fill="#2C3E50" opacity="0.2" filter="url(#land-blur)"/>
    <rect x="120" y="470" width="720" height="90" fill="#2C3E50" opacity="0.28" filter="url(#land-blur)"/>

    <!-- Distant headland/cliff on right -->
    <ellipse cx="780" cy="320" rx="120" ry="180" fill="#2C3E50" opacity="0.1" filter="url(#land-blur)"/>
  </g>
</svg>
