<svg xmlns="http://www.w3.org/2000/svg" width="960" height="540" viewBox="0 0 960 540">
  <defs>
    <linearGradient id="bg" x1="-10%" y1="30%" x2="110%" y2="70%">
      <stop offset="0%" stop-color="#3B1070"/>
      <stop offset="100%" stop-color="#6A1B9A"/>
    </linearGradient>
    <filter id="blurXL" x="-100%" y="-100%" width="300%" height="300%">
      <feGaussianBlur stdDeviation="65"/>
    </filter>
    <filter id="blurL" x="-100%" y="-100%" width="300%" height="300%">
      <feGaussianBlur stdDeviation="38"/>
    </filter>
    <filter id="blurM" x="-100%" y="-100%" width="300%" height="300%">
      <feGaussianBlur stdDeviation="24"/>
    </filter>
    <filter id="grain">
      <feTurbulence type="fractalNoise" baseFrequency="0.9" numOctaves="4" stitchTiles="stitch" result="noise"/>
      <feColorMatrix in="noise" type="matrix" values="0 0 0 0 1  0 0 0 0 1  0 0 0 0 1  0 0 0 0.6 0"/>
    </filter>
  </defs>

  <rect width="960" height="540" fill="url(#bg)"/>

  <circle cx="-60" cy="200" r="220" fill="#F06292" opacity="0.7" filter="url(#blurXL)" style="mix-blend-mode:screen"/>
  <circle cx="340" cy="260" r="160" fill="#F8BBD0" opacity="0.5" filter="url(#blurXL)" style="mix-blend-mode:screen"/>
  <circle cx="640" cy="130" r="80" fill="#EC407A" opacity="0.32" filter="url(#blurL)" style="mix-blend-mode:screen"/>
  <circle cx="1010" cy="440" r="170" fill="#22073F" opacity="0.45" filter="url(#blurXL)"/>

  <rect width="960" height="540" filter="url(#grain)" style="mix-blend-mode:overlay" opacity="0.4"/>

  <g filter="url(#blurM)">
  <circle cx="300" cy="180" r="60" fill="#FFFFFF" opacity="0.22"/>
  <circle cx="430" cy="140" r="34" fill="#FFFFFF" opacity="0.28"/>
  <circle cx="560" cy="230" r="90" fill="none" stroke="#FFFFFF" stroke-width="7" opacity="0.42"/>
  <circle cx="720" cy="390" r="48" fill="#FFFFFF" opacity="0.16"/>
  <circle cx="330" cy="410" r="70" fill="none" stroke="#FFFFFF" stroke-width="6" opacity="0.32"/>
  </g>

  <!-- Wireframe overlay: Centered Box, categorical matrix — 4 isolated lanes, one archetype each, none bridge a divider -->
  <g stroke="#FFFFFF" stroke-width="0.75" opacity="0.15">
    <rect x="144" y="108" width="672" height="324" fill="none" vector-effect="non-scaling-stroke"/>
    <line x1="312" y1="108" x2="312" y2="432" vector-effect="non-scaling-stroke"/>
    <line x1="480" y1="108" x2="480" y2="432" vector-effect="non-scaling-stroke"/>
    <line x1="648" y1="108" x2="648" y2="432" vector-effect="non-scaling-stroke"/>
  </g>

  <!-- Lane 1 (144-312): 3-bar vertical column chart -->
  <g stroke="#FFFFFF" fill="none" stroke-width="1.5" opacity="0.9" stroke-linecap="round">
    <line x1="192" y1="378" x2="192" y2="324" vector-effect="non-scaling-stroke"/>
    <line x1="228" y1="378" x2="228" y2="270" vector-effect="non-scaling-stroke"/>
    <line x1="264" y1="378" x2="264" y2="216" vector-effect="non-scaling-stroke"/>
  </g>

  <!-- Lane 2 (312-480): precise 50/50 split circle -->
  <g>
    <path d="M396,216 A54,54 0 0,0 396,324 Z" fill="#FFFFFF" opacity="0.18"/>
    <circle cx="396" cy="270" r="54" fill="none" stroke="#FFFFFF" stroke-width="1.5" opacity="0.9" vector-effect="non-scaling-stroke"/>
    <line x1="396" y1="216" x2="396" y2="324" stroke="#FFFFFF" stroke-width="1.5" opacity="0.9" vector-effect="non-scaling-stroke"/>
  </g>

  <!-- Lane 3 (480-648): a smooth individual arc -->
  <path d="M516,378 Q564,270 612,378" stroke="#FFFFFF" stroke-width="1.5" opacity="0.9" fill="none" stroke-linecap="round" vector-effect="non-scaling-stroke"/>

  <!-- Lane 4 (648-816): flat steady line with a terminating node -->
  <line x1="684" y1="324" x2="780" y2="324" stroke="#FFFFFF" stroke-width="1.5" opacity="0.9" stroke-linecap="round" vector-effect="non-scaling-stroke"/>
  <g fill="#FFFFFF">
    <circle cx="780" cy="324" r="6" opacity="0.3"/>
    <circle cx="780" cy="324" r="2" opacity="1"/>
  </g>
</svg>
