<svg xmlns="http://www.w3.org/2000/svg" width="960" height="540" viewBox="0 0 960 540">
  <defs>
    <linearGradient id="bg" x1="90%" y1="105%" x2="10%" y2="-5%">
      <stop offset="0%" stop-color="#7B0D3F"/>
      <stop offset="100%" stop-color="#C2185B"/>
    </linearGradient>
    <filter id="blurXL" x="-100%" y="-100%" width="300%" height="300%">
      <feGaussianBlur stdDeviation="65"/>
    </filter>
    <filter id="blurL" x="-100%" y="-100%" width="300%" height="300%">
      <feGaussianBlur stdDeviation="38"/>
    </filter>
    <filter id="blurM" x="-100%" y="-100%" width="300%" height="300%">
      <feGaussianBlur stdDeviation="24"/>
    </filter>
    <filter id="grain">
      <feTurbulence type="fractalNoise" baseFrequency="0.9" numOctaves="4" stitchTiles="stitch" result="noise"/>
      <feColorMatrix in="noise" type="matrix" values="0 0 0 0 1  0 0 0 0 1  0 0 0 0 1  0 0 0 0.6 0"/>
    </filter>
  </defs>

  <rect width="960" height="540" fill="url(#bg)"/>

  <circle cx="1030" cy="570" r="250" fill="#90CAF9" opacity="0.7" filter="url(#blurXL)" style="mix-blend-mode:screen"/>
  <circle cx="650" cy="340" r="165" fill="#B3E5FC" opacity="0.5" filter="url(#blurXL)" style="mix-blend-mode:screen"/>
  <circle cx="400" cy="200" r="90" fill="#18FFFF" opacity="0.32" filter="url(#blurL)" style="mix-blend-mode:screen"/>
  <circle cx="-70" cy="-50" r="150" fill="#4A0625" opacity="0.45" filter="url(#blurXL)"/>

  <rect width="960" height="540" filter="url(#grain)" style="mix-blend-mode:overlay" opacity="0.4"/>

  <g filter="url(#blurM)">
  <circle cx="410" cy="300" r="150" fill="none" stroke="#FFFFFF" stroke-width="7" opacity="0.5"/>
  <circle cx="410" cy="300" r="150" fill="#FFFFFF" opacity="0.12"/>
  <circle cx="590" cy="300" r="150" fill="none" stroke="#FFFFFF" stroke-width="7" opacity="0.5"/>
  <circle cx="590" cy="300" r="150" fill="#FFFFFF" opacity="0.12"/>
  </g>

  <!-- Wireframe overlay: two lines merging into one -->
  <g stroke="#FFFFFF" fill="none" stroke-width="2" stroke-linecap="round" opacity="0.6">
    <path d="M220,220 Q320,200 420,260 T560,300"/>
    <path d="M220,400 Q320,420 420,340 T560,300"/>
    <path d="M560,300 Q700,280 850,300"/>
  </g>
  <circle cx="560" cy="300" r="5" fill="#FFFFFF" opacity="0.85"/>
</svg>
