<svg xmlns="http://www.w3.org/2000/svg" width="960" height="540" viewBox="0 0 960 540">
  <defs>
    <linearGradient id="bg" x1="15%" y1="105%" x2="90%" y2="-15%">
      <stop offset="0%" stop-color="#081620"/>
      <stop offset="100%" stop-color="#1C3A52"/>
    </linearGradient>
    <linearGradient id="areaFade" x1="0" y1="0" x2="0" y2="1">
      <stop offset="0%" stop-color="#FFFFFF" stop-opacity="0.15"/>
      <stop offset="100%" stop-color="#FFFFFF" stop-opacity="0"/>
    </linearGradient>
    <filter id="blurXL" x="-100%" y="-100%" width="300%" height="300%">
      <feGaussianBlur stdDeviation="65"/>
    </filter>
    <filter id="blurL" x="-100%" y="-100%" width="300%" height="300%">
      <feGaussianBlur stdDeviation="38"/>
    </filter>
    <filter id="blurM" x="-100%" y="-100%" width="300%" height="300%">
      <feGaussianBlur stdDeviation="24"/>
    </filter>
    <filter id="grain">
      <feTurbulence type="fractalNoise" baseFrequency="0.9" numOctaves="4" stitchTiles="stitch" result="noise"/>
      <feColorMatrix in="noise" type="matrix" values="0 0 0 0 1  0 0 0 0 1  0 0 0 0 1  0 0 0 0.6 0"/>
    </filter>
  </defs>

  <rect width="960" height="540" fill="url(#bg)"/>

  <circle cx="920" cy="-40" r="240" fill="#90CAF9" opacity="0.7" filter="url(#blurXL)" style="mix-blend-mode:screen"/>
  <circle cx="560" cy="260" r="165" fill="#E1F5FE" opacity="0.5" filter="url(#blurXL)" style="mix-blend-mode:screen"/>
  <circle cx="320" cy="400" r="90" fill="#7C4DFF" opacity="0.32" filter="url(#blurL)" style="mix-blend-mode:screen"/>
  <circle cx="140" cy="500" r="60" fill="#040B10" opacity="0.45" filter="url(#blurXL)"/>

  <rect width="960" height="540" filter="url(#grain)" style="mix-blend-mode:overlay" opacity="0.4"/>

  <g filter="url(#blurM)">
  <circle cx="180" cy="440" r="22" fill="#FFFFFF" opacity="0.55"/>
  <circle cx="290" cy="400" r="38" fill="#FFFFFF" opacity="0.4"/>
  <circle cx="440" cy="330" r="62" fill="#FFFFFF" opacity="0.26"/>
  <circle cx="650" cy="220" r="100" fill="#FFFFFF" opacity="0.16"/>
  </g>

  <!-- Wireframe overlay: Full Vertical Bleed, diverging snowball vs. avalanche slopes -->
  <g stroke="#FFFFFF" stroke-width="0.75" opacity="0.15">
    <line x1="144" y1="0" x2="144" y2="540" vector-effect="non-scaling-stroke"/>
    <line x1="368" y1="0" x2="368" y2="540" vector-effect="non-scaling-stroke"/>
    <line x1="592" y1="0" x2="592" y2="540" vector-effect="non-scaling-stroke"/>
    <line x1="816" y1="0" x2="816" y2="540" vector-effect="non-scaling-stroke"/>
    <line x1="144" y1="108" x2="816" y2="108" vector-effect="non-scaling-stroke"/>
    <line x1="144" y1="216" x2="816" y2="216" vector-effect="non-scaling-stroke"/>
    <line x1="144" y1="324" x2="816" y2="324" vector-effect="non-scaling-stroke"/>
    <line x1="144" y1="432" x2="816" y2="432" vector-effect="non-scaling-stroke"/>
  </g>
  <g stroke="#FFFFFF" fill="none">
    <line x1="144" y1="0" x2="144" y2="540" stroke-width="1" opacity="0.4" vector-effect="non-scaling-stroke"/>
    <line x1="144" y1="432" x2="816" y2="432" stroke-width="1" opacity="0.4" vector-effect="non-scaling-stroke"/>
  </g>
  <path d="M144,432 C300,420 600,300 816,108 L816,432 Z" fill="url(#areaFade)"/>
  <g stroke="#FFFFFF" fill="none" stroke-linecap="round">
    <path d="M144,432 C300,420 600,300 816,108" stroke-width="1.5" opacity="0.95" vector-effect="non-scaling-stroke"/>
    <path d="M144,432 C350,428 650,360 816,270" stroke-width="1" opacity="0.45" stroke-dasharray="4,4" vector-effect="non-scaling-stroke"/>
  </g>
  <g fill="#FFFFFF">
    <circle cx="816" cy="108" r="6" opacity="0.3"/>
    <circle cx="816" cy="108" r="2" opacity="1"/>
    <circle cx="816" cy="270" r="5" opacity="0.25"/>
    <circle cx="816" cy="270" r="1.6" opacity="0.8"/>
  </g>
</svg>
