<svg xmlns="http://www.w3.org/2000/svg" width="960" height="540" viewBox="0 0 960 540">
  <defs>
    <linearGradient id="bg" x1="0%" y1="0%" x2="100%" y2="100%">
      <stop offset="0%" stop-color="#FFF8E1"/>
      <stop offset="100%" stop-color="#FFECB3"/>
    </linearGradient>
    <linearGradient id="blob1" x1="0%" y1="0%" x2="100%" y2="100%">
      <stop offset="0%" stop-color="#F9A825" stop-opacity="0.5"/>
      <stop offset="100%" stop-color="#FFD54F" stop-opacity="0.25"/>
    </linearGradient>
    <linearGradient id="blob2" x1="100%" y1="0%" x2="0%" y2="100%">
      <stop offset="0%" stop-color="#F57F17" stop-opacity="0.35"/>
      <stop offset="100%" stop-color="#FFE082" stop-opacity="0.15"/>
    </linearGradient>
    <linearGradient id="blob3" x1="0%" y1="100%" x2="100%" y2="0%">
      <stop offset="0%" stop-color="#F9A825" stop-opacity="0.3"/>
      <stop offset="100%" stop-color="#FFD54F" stop-opacity="0.1"/>
    </linearGradient>
    <filter id="blur1" x="-50%" y="-50%" width="200%" height="200%">
      <feGaussianBlur stdDeviation="60"/>
    </filter>
    <filter id="blur2" x="-50%" y="-50%" width="200%" height="200%">
      <feGaussianBlur stdDeviation="45"/>
    </filter>
    <filter id="blur3" x="-50%" y="-50%" width="200%" height="200%">
      <feGaussianBlur stdDeviation="55"/>
    </filter>
    <filter id="grain">
      <feTurbulence type="fractalNoise" baseFrequency="0.65" numOctaves="3" stitchTiles="stitch"/>
      <feColorMatrix type="saturate" values="0"/>
      <feBlend in="SourceGraphic" mode="multiply"/>
    </filter>
    <clipPath id="card-clip">
      <rect x="120" y="68" width="720" height="490" rx="10"/>
    </clipPath>
  </defs>

  <rect width="960" height="540" fill="url(#bg)"/>
  <ellipse cx="240" cy="160" rx="300" ry="220" fill="url(#blob1)" filter="url(#blur1)"/>
  <ellipse cx="700" cy="400" rx="280" ry="200" fill="url(#blob2)" filter="url(#blur2)"/>
  <ellipse cx="500" cy="40" rx="240" ry="160" fill="url(#blob3)" filter="url(#blur3)"/>
  <circle cx="130" cy="380" r="130" fill="#F9A825" fill-opacity="0.06" filter="url(#blur2)"/>
  <circle cx="860" cy="90" r="110" fill="#F57F17" fill-opacity="0.07" filter="url(#blur3)"/>
  <rect width="960" height="540" filter="url(#grain)" opacity="0.12"/>

  <rect x="120" y="68" width="720" height="490" rx="10" fill="white"/>

  <g clip-path="url(#card-clip)">
    <!-- Downward trending line chart — jagged decline evoking failure/drop-off -->
    <polyline
      points="140,160 260,150 340,200 420,180 500,280 560,260 640,360 720,340 800,440"
      fill="none"
      stroke="#F9A825"
      stroke-width="6"
      stroke-linecap="round"
      stroke-linejoin="round"
      opacity="0.8"
    />
    <!-- Area fill beneath the line -->
    <polygon
      points="140,160 260,150 340,200 420,180 500,280 560,260 640,360 720,340 800,440 800,558 140,558"
      fill="#F9A825"
      opacity="0.1"
    />
    <!-- Accent dots at key inflection points -->
    <circle cx="340" cy="200" r="8" fill="#F9A825" opacity="0.6"/>
    <circle cx="500" cy="280" r="8" fill="#F9A825" opacity="0.5"/>
    <circle cx="640" cy="360" r="8" fill="#F9A825" opacity="0.4"/>
  </g>
</svg>
