<svg xmlns="http://www.w3.org/2000/svg" width="960" height="540" viewBox="0 0 960 540">
  <defs>
    <linearGradient id="bg" x1="15%" y1="-10%" x2="85%" y2="110%">
      <stop offset="0%" stop-color="#0B3D91"/>
      <stop offset="100%" stop-color="#1565C0"/>
    </linearGradient>
    <filter id="blurXL" x="-100%" y="-100%" width="300%" height="300%">
      <feGaussianBlur stdDeviation="65"/>
    </filter>
    <filter id="blurL" x="-100%" y="-100%" width="300%" height="300%">
      <feGaussianBlur stdDeviation="38"/>
    </filter>
    <filter id="blurM" x="-100%" y="-100%" width="300%" height="300%">
      <feGaussianBlur stdDeviation="24"/>
    </filter>
    <filter id="grain">
      <feTurbulence type="fractalNoise" baseFrequency="0.9" numOctaves="4" stitchTiles="stitch" result="noise"/>
      <feColorMatrix in="noise" type="matrix" values="0 0 0 0 1  0 0 0 0 1  0 0 0 0 1  0 0 0 0.6 0"/>
    </filter>
  </defs>

  <rect width="960" height="540" fill="url(#bg)"/>

  <circle cx="870" cy="-30" r="250" fill="#4FC3F7" opacity="0.7" filter="url(#blurXL)" style="mix-blend-mode:screen"/>
  <circle cx="560" cy="230" r="160" fill="#80D8FF" opacity="0.5" filter="url(#blurXL)" style="mix-blend-mode:screen"/>
  <circle cx="300" cy="380" r="95" fill="#18FFFF" opacity="0.32" filter="url(#blurL)" style="mix-blend-mode:screen"/>
  <circle cx="-70" cy="560" r="170" fill="#0D47A1" opacity="0.45" filter="url(#blurXL)"/>

  <rect width="960" height="540" filter="url(#grain)" style="mix-blend-mode:overlay" opacity="0.4"/>

  <g filter="url(#blurM)">
  <g opacity="0.9">
    <circle cx="330" cy="330" r="110" fill="#FFFFFF" opacity="0.22"/>
    <circle cx="330" cy="330" r="110" fill="none" stroke="#FFFFFF" stroke-width="7" opacity="0.5"/>
    <circle cx="520" cy="380" r="78" fill="#FFFFFF" opacity="0.15"/>
    <circle cx="520" cy="380" r="78" fill="none" stroke="#FFFFFF" stroke-width="6" opacity="0.38"/>
    <circle cx="660" cy="410" r="50" fill="#FFFFFF" opacity="0.11"/>
    <circle cx="660" cy="410" r="50" fill="none" stroke="#FFFFFF" stroke-width="6" opacity="0.28"/>
  </g>
  </g>

  <!-- Wireframe overlay: Type C (clean floating box), 50/30/20 split -->
  <g stroke="#FFFFFF" stroke-width="0.75" opacity="0.15">
    <rect x="144" y="108" width="672" height="324" fill="none" vector-effect="non-scaling-stroke"/>
    <line x1="368" y1="108" x2="368" y2="432" vector-effect="non-scaling-stroke"/>
    <line x1="592" y1="108" x2="592" y2="432" vector-effect="non-scaling-stroke"/>
    <line x1="144" y1="216" x2="816" y2="216" vector-effect="non-scaling-stroke"/>
    <line x1="144" y1="324" x2="816" y2="324" vector-effect="non-scaling-stroke"/>
  </g>
  <g stroke="#FFFFFF" fill="none" stroke-linecap="round">
    <line x1="144" y1="432" x2="816" y2="432" stroke-width="1" opacity="0.45" vector-effect="non-scaling-stroke"/>
    <line x1="256" y1="432" x2="256" y2="162" stroke-width="1.5" opacity="0.95" vector-effect="non-scaling-stroke"/>
    <line x1="480" y1="432" x2="480" y2="270" stroke-width="1.5" opacity="0.95" vector-effect="non-scaling-stroke"/>
    <line x1="704" y1="432" x2="704" y2="378" stroke-width="1.5" opacity="0.95" vector-effect="non-scaling-stroke"/>
  </g>
  <g fill="#FFFFFF">
    <circle cx="256" cy="162" r="6" opacity="0.3"/>
    <circle cx="256" cy="162" r="2" opacity="1"/>
    <circle cx="480" cy="270" r="6" opacity="0.3"/>
    <circle cx="480" cy="270" r="2" opacity="1"/>
    <circle cx="704" cy="378" r="6" opacity="0.3"/>
    <circle cx="704" cy="378" r="2" opacity="1"/>
  </g>
</svg>
