<svg xmlns="http://www.w3.org/2000/svg" width="960" height="540" viewBox="0 0 960 540">
  <defs>
    <linearGradient id="bg" x1="5%" y1="-10%" x2="95%" y2="110%">
      <stop offset="0%" stop-color="#0A2472"/>
      <stop offset="100%" stop-color="#1E3A8A"/>
    </linearGradient>
    <filter id="blurXL" x="-100%" y="-100%" width="300%" height="300%">
      <feGaussianBlur stdDeviation="65"/>
    </filter>
    <filter id="blurL" x="-100%" y="-100%" width="300%" height="300%">
      <feGaussianBlur stdDeviation="38"/>
    </filter>
    <filter id="blurM" x="-100%" y="-100%" width="300%" height="300%">
      <feGaussianBlur stdDeviation="24"/>
    </filter>
    <filter id="grain">
      <feTurbulence type="fractalNoise" baseFrequency="0.9" numOctaves="4" stitchTiles="stitch" result="noise"/>
      <feColorMatrix in="noise" type="matrix" values="0 0 0 0 1  0 0 0 0 1  0 0 0 0 1  0 0 0 0.6 0"/>
    </filter>
  </defs>

  <rect width="960" height="540" fill="url(#bg)"/>

  <circle cx="-60" cy="-60" r="220" fill="#7C4DFF" opacity="0.7" filter="url(#blurXL)" style="mix-blend-mode:screen"/>
  <circle cx="300" cy="250" r="160" fill="#B39DDB" opacity="0.5" filter="url(#blurXL)" style="mix-blend-mode:screen"/>
  <circle cx="590" cy="380" r="80" fill="#536DFE" opacity="0.32" filter="url(#blurL)" style="mix-blend-mode:screen"/>
  <circle cx="1020" cy="590" r="190" fill="#050E33" opacity="0.45" filter="url(#blurXL)"/>

  <rect width="960" height="540" filter="url(#grain)" style="mix-blend-mode:overlay" opacity="0.4"/>

  <g filter="url(#blurM)">
  <circle cx="250" cy="210" r="70" fill="#FFFFFF" opacity="0.24"/>
  <circle cx="390" cy="280" r="46" fill="#FFFFFF" opacity="0.2"/>
  <circle cx="500" cy="350" r="30" fill="#FFFFFF" opacity="0.16"/>
  <circle cx="600" cy="410" r="18" fill="#FFFFFF" opacity="0.14"/>
  </g>

  <!-- Wireframe overlay: category breakdown ring -->
  <g stroke="#FFFFFF" fill="none" stroke-width="2" stroke-linecap="round" opacity="0.6">
    <circle cx="720" cy="230" r="100"/>
    <line x1="720" y1="230" x2="820" y2="230"/>
    <line x1="720" y1="230" x2="754" y2="324"/>
    <line x1="720" y1="230" x2="626" y2="264"/>
    <line x1="720" y1="230" x2="694" y2="133"/>
  </g>
  <circle cx="720" cy="230" r="4" fill="#FFFFFF" opacity="0.85"/>
</svg>
