<svg xmlns="http://www.w3.org/2000/svg" width="960" height="540" viewBox="0 0 960 540">
  <defs>
    <linearGradient id="bg" x1="0%" y1="0%" x2="100%" y2="100%">
      <stop offset="0%" stop-color="#E8F5E9"/>
      <stop offset="100%" stop-color="#C8E6C9"/>
    </linearGradient>
    <linearGradient id="blob1" x1="0%" y1="0%" x2="100%" y2="100%">
      <stop offset="0%" stop-color="#2D9D78" stop-opacity="0.6"/>
      <stop offset="100%" stop-color="#43D9A2" stop-opacity="0.3"/>
    </linearGradient>
    <linearGradient id="blob2" x1="0%" y1="0%" x2="100%" y2="100%">
      <stop offset="0%" stop-color="#196EDD" stop-opacity="0.4"/>
      <stop offset="100%" stop-color="#81C4FF" stop-opacity="0.2"/>
    </linearGradient>
    <linearGradient id="blob3" x1="0%" y1="100%" x2="100%" y2="0%">
      <stop offset="0%" stop-color="#FFD54F" stop-opacity="0.5"/>
      <stop offset="100%" stop-color="#FFE082" stop-opacity="0.2"/>
    </linearGradient>
    <filter id="blur1" x="-50%" y="-50%" width="200%" height="200%">
      <feGaussianBlur stdDeviation="60"/>
    </filter>
    <filter id="blur2" x="-50%" y="-50%" width="200%" height="200%">
      <feGaussianBlur stdDeviation="45"/>
    </filter>
    <filter id="blur3" x="-50%" y="-50%" width="200%" height="200%">
      <feGaussianBlur stdDeviation="55"/>
    </filter>
    <filter id="grain">
      <feTurbulence type="fractalNoise" baseFrequency="0.65" numOctaves="3" stitchTiles="stitch"/>
      <feColorMatrix type="saturate" values="0"/>
      <feBlend in="SourceGraphic" mode="multiply"/>
    </filter>
  </defs>

  <!-- Abstract gradient background -->
  <rect width="960" height="540" fill="url(#bg)"/>
  <ellipse cx="250" cy="120" rx="280" ry="180" fill="url(#blob1)" filter="url(#blur1)"/>
  <ellipse cx="700" cy="80" rx="280" ry="180" fill="url(#blob2)" filter="url(#blur2)"/>
  <ellipse cx="500" cy="30" rx="200" ry="140" fill="url(#blob3)" filter="url(#blur3)"/>
  <circle cx="120" cy="300" r="140" fill="#2D9D78" fill-opacity="0.06" filter="url(#blur2)"/>
  <circle cx="850" cy="60" r="120" fill="#196EDD" fill-opacity="0.08" filter="url(#blur3)"/>

  <!-- Grain texture overlay -->
  <rect width="960" height="540" filter="url(#grain)" opacity="0.12"/>

  <!-- White card — 50% closer to top -->
  <rect x="120" y="68" width="720" height="490" rx="10" fill="white"/>

  <!-- Header -->
  <text x="164" y="108" font-family="system-ui, -apple-system, sans-serif" font-size="14" font-weight="600" fill="#2A2522">Monthly income</text>

  <!-- Bar chart -->
  <text x="164" y="148" font-family="system-ui, -apple-system, sans-serif" font-size="11" fill="#8A817C">$6k</text>
  <text x="164" y="208" font-family="system-ui, -apple-system, sans-serif" font-size="11" fill="#8A817C">$4k</text>
  <text x="164" y="268" font-family="system-ui, -apple-system, sans-serif" font-size="11" fill="#8A817C">$2k</text>
  <text x="164" y="328" font-family="system-ui, -apple-system, sans-serif" font-size="11" fill="#8A817C">$0</text>

  <!-- Grid lines -->
  <line x1="200" y1="144" x2="796" y2="144" stroke="#F0EDEA" stroke-width="1"/>
  <line x1="200" y1="204" x2="796" y2="204" stroke="#F0EDEA" stroke-width="1"/>
  <line x1="200" y1="264" x2="796" y2="264" stroke="#F0EDEA" stroke-width="1"/>
  <line x1="200" y1="324" x2="796" y2="324" stroke="#F0EDEA" stroke-width="1"/>

  <!-- Bars -->
  <rect x="220" y="174" width="56" height="150" rx="4" fill="#2D9D78" fill-opacity="0.2"/>
  <rect x="300" y="194" width="56" height="130" rx="4" fill="#2D9D78" fill-opacity="0.2"/>
  <rect x="380" y="144" width="56" height="180" rx="4" fill="#2D9D78" fill-opacity="0.2"/>
  <rect x="460" y="234" width="56" height="90" rx="4" fill="#2D9D78" fill-opacity="0.2"/>
  <rect x="540" y="159" width="56" height="165" rx="4" fill="#2D9D78"/>
  <rect x="620" y="204" width="56" height="120" rx="4" fill="#2D9D78" fill-opacity="0.2"/>
  <rect x="700" y="184" width="56" height="140" rx="4" fill="#2D9D78" fill-opacity="0.2"/>

  <!-- Month labels -->
  <text x="248" y="345" font-family="system-ui, -apple-system, sans-serif" font-size="11" fill="#8A817C" text-anchor="middle">Jan</text>
  <text x="328" y="345" font-family="system-ui, -apple-system, sans-serif" font-size="11" fill="#8A817C" text-anchor="middle">Feb</text>
  <text x="408" y="345" font-family="system-ui, -apple-system, sans-serif" font-size="11" fill="#8A817C" text-anchor="middle">Mar</text>
  <text x="488" y="345" font-family="system-ui, -apple-system, sans-serif" font-size="11" fill="#8A817C" text-anchor="middle">Apr</text>
  <text x="568" y="345" font-family="system-ui, -apple-system, sans-serif" font-size="11" fill="#2A2522" text-anchor="middle">May</text>
  <text x="648" y="345" font-family="system-ui, -apple-system, sans-serif" font-size="11" fill="#8A817C" text-anchor="middle">Jun</text>
  <text x="728" y="345" font-family="system-ui, -apple-system, sans-serif" font-size="11" fill="#8A817C" text-anchor="middle">Jul</text>

  <!-- Baseline indicator -->
  <line x1="200" y1="218" x2="796" y2="218" stroke="#2D9D78" stroke-width="1" stroke-dasharray="4 3"/>
  <text x="796" y="214" font-family="system-ui, -apple-system, sans-serif" font-size="10" fill="#2D9D78" text-anchor="end">Baseline</text>

  <!-- Summary row -->
  <line x1="164" y1="370" x2="796" y2="370" stroke="#F0EDEA" stroke-width="1"/>
  <text x="164" y="400" font-family="system-ui, -apple-system, sans-serif" font-size="13" fill="#6E6560">Average</text>
  <text x="164" y="432" font-family="system-ui, -apple-system, sans-serif" font-size="28" font-weight="700" fill="#2A2522">$4,280</text>
  <text x="420" y="400" font-family="system-ui, -apple-system, sans-serif" font-size="13" fill="#6E6560">This month</text>
  <text x="420" y="432" font-family="system-ui, -apple-system, sans-serif" font-size="28" font-weight="700" fill="#2D9D78">$5,100</text>
</svg>
