<svg xmlns="http://www.w3.org/2000/svg" width="960" height="540" viewBox="0 0 960 540">
  <defs>
    <linearGradient id="bg" x1="10%" y1="105%" x2="90%" y2="-10%">
      <stop offset="0%" stop-color="#0F3D13"/>
      <stop offset="100%" stop-color="#2E7D32"/>
    </linearGradient>
    <filter id="blurXL" x="-100%" y="-100%" width="300%" height="300%">
      <feGaussianBlur stdDeviation="65"/>
    </filter>
    <filter id="blurL" x="-100%" y="-100%" width="300%" height="300%">
      <feGaussianBlur stdDeviation="38"/>
    </filter>
    <filter id="blurM" x="-100%" y="-100%" width="300%" height="300%">
      <feGaussianBlur stdDeviation="24"/>
    </filter>
    <filter id="grain">
      <feTurbulence type="fractalNoise" baseFrequency="0.9" numOctaves="4" stitchTiles="stitch" result="noise"/>
      <feColorMatrix in="noise" type="matrix" values="0 0 0 0 1  0 0 0 0 1  0 0 0 0 1  0 0 0 0.6 0"/>
    </filter>
  </defs>

  <rect width="960" height="540" fill="url(#bg)"/>

  <circle cx="-80" cy="400" r="210" fill="#F06292" opacity="0.7" filter="url(#blurXL)" style="mix-blend-mode:screen"/>
  <circle cx="300" cy="300" r="160" fill="#F8BBD0" opacity="0.5" filter="url(#blurXL)" style="mix-blend-mode:screen"/>
  <circle cx="600" cy="190" r="90" fill="#EC407A" opacity="0.32" filter="url(#blurL)" style="mix-blend-mode:screen"/>
  <circle cx="1020" cy="110" r="170" fill="#082209" opacity="0.45" filter="url(#blurXL)"/>

  <rect width="960" height="540" filter="url(#grain)" style="mix-blend-mode:overlay" opacity="0.4"/>

  <g filter="url(#blurM)">
  <circle cx="230" cy="380" r="34" fill="#FFFFFF" opacity="0.24"/>
  <circle cx="330" cy="330" r="62" fill="#FFFFFF" opacity="0.18"/>
  <circle cx="440" cy="400" r="24" fill="#FFFFFF" opacity="0.2"/>
  <circle cx="560" cy="290" r="78" fill="none" stroke="#FFFFFF" stroke-width="7" opacity="0.42"/>
  <circle cx="700" cy="360" r="20" fill="#FFFFFF" opacity="0.22"/>
  </g>

  <!-- Wireframe overlay: volatile income wave over a steady baseline, anchored in a centered safe zone -->
  <g stroke="#FFFFFF" stroke-width="0.75" opacity="0.15">
    <rect x="240" y="162" width="480" height="216" fill="none"/>
    <line x1="400" y1="162" x2="400" y2="378"/>
    <line x1="560" y1="162" x2="560" y2="378"/>
    <line x1="240" y1="234" x2="720" y2="234"/>
    <line x1="240" y1="306" x2="720" y2="306"/>
  </g>
  <g stroke="#FFFFFF" fill="none" stroke-linecap="round">
    <line x1="260" y1="300" x2="660" y2="300" stroke-width="1" opacity="0.45" stroke-dasharray="4,4"/>
    <path d="M270,300 C310,230 350,230 390,300 C430,370 470,370 510,300 C550,230 590,230 630,300" stroke-width="1.5" opacity="0.95"/>
  </g>
  <g fill="#FFFFFF">
    <circle cx="270" cy="300" r="5" opacity="0.25"/>
    <circle cx="270" cy="300" r="1.6" opacity="0.8"/>
    <circle cx="630" cy="300" r="5" opacity="0.25"/>
    <circle cx="630" cy="300" r="1.6" opacity="0.8"/>
  </g>
</svg>
