<svg xmlns="http://www.w3.org/2000/svg" width="960" height="540" viewBox="0 0 960 540">
  <defs>
    <linearGradient id="bg" x1="-10%" y1="30%" x2="110%" y2="70%">
      <stop offset="0%" stop-color="#3B1070"/>
      <stop offset="100%" stop-color="#6A1B9A"/>
    </linearGradient>
    <filter id="blurXL" x="-100%" y="-100%" width="300%" height="300%">
      <feGaussianBlur stdDeviation="65"/>
    </filter>
    <filter id="blurL" x="-100%" y="-100%" width="300%" height="300%">
      <feGaussianBlur stdDeviation="38"/>
    </filter>
    <filter id="blurM" x="-100%" y="-100%" width="300%" height="300%">
      <feGaussianBlur stdDeviation="24"/>
    </filter>
    <filter id="grain">
      <feTurbulence type="fractalNoise" baseFrequency="0.9" numOctaves="4" stitchTiles="stitch" result="noise"/>
      <feColorMatrix in="noise" type="matrix" values="0 0 0 0 1  0 0 0 0 1  0 0 0 0 1  0 0 0 0.6 0"/>
    </filter>
  </defs>

  <rect width="960" height="540" fill="url(#bg)"/>

  <circle cx="-60" cy="200" r="220" fill="#F06292" opacity="0.7" filter="url(#blurXL)" style="mix-blend-mode:screen"/>
  <circle cx="340" cy="260" r="160" fill="#F8BBD0" opacity="0.5" filter="url(#blurXL)" style="mix-blend-mode:screen"/>
  <circle cx="640" cy="130" r="80" fill="#EC407A" opacity="0.32" filter="url(#blurL)" style="mix-blend-mode:screen"/>
  <circle cx="1010" cy="440" r="170" fill="#22073F" opacity="0.45" filter="url(#blurXL)"/>

  <rect width="960" height="540" filter="url(#grain)" style="mix-blend-mode:overlay" opacity="0.4"/>

  <g filter="url(#blurM)">
  <circle cx="300" cy="180" r="60" fill="#FFFFFF" opacity="0.22"/>
  <circle cx="430" cy="140" r="34" fill="#FFFFFF" opacity="0.28"/>
  <circle cx="560" cy="230" r="90" fill="none" stroke="#FFFFFF" stroke-width="7" opacity="0.42"/>
  <circle cx="720" cy="390" r="48" fill="#FFFFFF" opacity="0.16"/>
  <circle cx="330" cy="410" r="70" fill="none" stroke="#FFFFFF" stroke-width="6" opacity="0.32"/>
  </g>

  <!-- Wireframe overlay: a row of distinct method glyphs -->
  <g stroke="#FFFFFF" fill="none" stroke-width="1.6" stroke-linecap="round" opacity="0.55">
    <line x1="190" y1="430" x2="720" y2="430" stroke-width="1.2" opacity="0.4"/>
    <line x1="210" y1="415" x2="210" y2="400"/>
    <line x1="230" y1="415" x2="230" y2="390"/>
    <line x1="250" y1="415" x2="250" y2="380"/>
    <circle cx="380" cy="395" r="25"/>
    <line x1="380" y1="395" x2="380" y2="370"/>
    <path d="M500,410 L515,375 L530,405 L545,370 L560,400"/>
    <line x1="650" y1="395" x2="710" y2="395"/>
  </g>
  <circle cx="710" cy="395" r="4" fill="#FFFFFF" opacity="0.85"/>
</svg>
