<svg xmlns="http://www.w3.org/2000/svg" width="960" height="540" viewBox="0 0 960 540">
  <defs>
    <linearGradient id="bg" x1="110%" y1="30%" x2="-10%" y2="70%">
      <stop offset="0%" stop-color="#04261B"/>
      <stop offset="100%" stop-color="#0E6B4A"/>
    </linearGradient>
    <filter id="blurXL" x="-100%" y="-100%" width="300%" height="300%">
      <feGaussianBlur stdDeviation="65"/>
    </filter>
    <filter id="blurL" x="-100%" y="-100%" width="300%" height="300%">
      <feGaussianBlur stdDeviation="38"/>
    </filter>
    <filter id="blurM" x="-100%" y="-100%" width="300%" height="300%">
      <feGaussianBlur stdDeviation="24"/>
    </filter>
    <filter id="grain">
      <feTurbulence type="fractalNoise" baseFrequency="0.9" numOctaves="4" stitchTiles="stitch" result="noise"/>
      <feColorMatrix in="noise" type="matrix" values="0 0 0 0 1  0 0 0 0 1  0 0 0 0 1  0 0 0 0.6 0"/>
    </filter>
  </defs>

  <rect width="960" height="540" fill="url(#bg)"/>

  <circle cx="1020" cy="200" r="220" fill="#4FC3F7" opacity="0.7" filter="url(#blurXL)" style="mix-blend-mode:screen"/>
  <circle cx="620" cy="260" r="160" fill="#B3E5FC" opacity="0.5" filter="url(#blurXL)" style="mix-blend-mode:screen"/>
  <circle cx="320" cy="130" r="80" fill="#18FFFF" opacity="0.32" filter="url(#blurL)" style="mix-blend-mode:screen"/>
  <circle cx="-50" cy="440" r="170" fill="#021712" opacity="0.45" filter="url(#blurXL)"/>

  <rect width="960" height="540" filter="url(#grain)" style="mix-blend-mode:overlay" opacity="0.4"/>

  <g filter="url(#blurM)">
  <circle cx="260" cy="380" r="30" fill="#FFFFFF" opacity="0.2"/>
  <circle cx="360" cy="380" r="30" fill="#FFFFFF" opacity="0.2"/>
  <circle cx="460" cy="380" r="30" fill="#FFFFFF" opacity="0.2"/>
  <circle cx="560" cy="380" r="30" fill="#FFFFFF" opacity="0.2"/>
  <circle cx="660" cy="380" r="30" fill="#FFFFFF" opacity="0.2"/>
  </g>

  <!-- Wireframe overlay: Full Horizontal Bleed, one steady flat line -->
  <g stroke="#FFFFFF" stroke-width="0.75" opacity="0.15">
    <line x1="144" y1="108" x2="144" y2="432" vector-effect="non-scaling-stroke"/>
    <line x1="368" y1="108" x2="368" y2="432" vector-effect="non-scaling-stroke"/>
    <line x1="592" y1="108" x2="592" y2="432" vector-effect="non-scaling-stroke"/>
    <line x1="816" y1="108" x2="816" y2="432" vector-effect="non-scaling-stroke"/>
    <line x1="0" y1="108" x2="960" y2="108" vector-effect="non-scaling-stroke"/>
    <line x1="0" y1="216" x2="960" y2="216" vector-effect="non-scaling-stroke"/>
    <line x1="0" y1="324" x2="960" y2="324" vector-effect="non-scaling-stroke"/>
    <line x1="0" y1="432" x2="960" y2="432" vector-effect="non-scaling-stroke"/>
  </g>
  <line x1="0" y1="270" x2="960" y2="270" stroke="#FFFFFF" stroke-width="1.5" opacity="0.95" vector-effect="non-scaling-stroke"/>
  <g fill="#FFFFFF">
    <circle cx="144" cy="270" r="3" opacity="0.9"/>
    <circle cx="256" cy="270" r="3" opacity="0.9"/>
    <circle cx="368" cy="270" r="3" opacity="0.9"/>
    <circle cx="480" cy="270" r="3" opacity="0.9"/>
    <circle cx="592" cy="270" r="3" opacity="0.9"/>
    <circle cx="704" cy="270" r="3" opacity="0.9"/>
    <circle cx="816" cy="270" r="3" opacity="0.9"/>
  </g>
</svg>
