<svg xmlns="http://www.w3.org/2000/svg" width="960" height="540" viewBox="0 0 960 540">
  <defs>
    <linearGradient id="bg" x1="10%" y1="105%" x2="90%" y2="-10%">
      <stop offset="0%" stop-color="#0F3D13"/>
      <stop offset="100%" stop-color="#2E7D32"/>
    </linearGradient>
    <linearGradient id="areaFade" x1="0" y1="0" x2="0" y2="1">
      <stop offset="0%" stop-color="#FFFFFF" stop-opacity="0.15"/>
      <stop offset="100%" stop-color="#FFFFFF" stop-opacity="0"/>
    </linearGradient>
    <filter id="blurXL" x="-100%" y="-100%" width="300%" height="300%">
      <feGaussianBlur stdDeviation="65"/>
    </filter>
    <filter id="blurL" x="-100%" y="-100%" width="300%" height="300%">
      <feGaussianBlur stdDeviation="38"/>
    </filter>
    <filter id="blurM" x="-100%" y="-100%" width="300%" height="300%">
      <feGaussianBlur stdDeviation="24"/>
    </filter>
    <filter id="grain">
      <feTurbulence type="fractalNoise" baseFrequency="0.9" numOctaves="4" stitchTiles="stitch" result="noise"/>
      <feColorMatrix in="noise" type="matrix" values="0 0 0 0 1  0 0 0 0 1  0 0 0 0 1  0 0 0 0.6 0"/>
    </filter>
  </defs>

  <rect width="960" height="540" fill="url(#bg)"/>

  <circle cx="-80" cy="400" r="210" fill="#F06292" opacity="0.7" filter="url(#blurXL)" style="mix-blend-mode:screen"/>
  <circle cx="300" cy="300" r="160" fill="#F8BBD0" opacity="0.5" filter="url(#blurXL)" style="mix-blend-mode:screen"/>
  <circle cx="600" cy="190" r="90" fill="#EC407A" opacity="0.32" filter="url(#blurL)" style="mix-blend-mode:screen"/>
  <circle cx="1020" cy="110" r="170" fill="#082209" opacity="0.45" filter="url(#blurXL)"/>

  <rect width="960" height="540" filter="url(#grain)" style="mix-blend-mode:overlay" opacity="0.4"/>

  <g filter="url(#blurM)">
  <circle cx="230" cy="380" r="34" fill="#FFFFFF" opacity="0.24"/>
  <circle cx="330" cy="330" r="62" fill="#FFFFFF" opacity="0.18"/>
  <circle cx="440" cy="400" r="24" fill="#FFFFFF" opacity="0.2"/>
  <circle cx="560" cy="290" r="78" fill="none" stroke="#FFFFFF" stroke-width="7" opacity="0.42"/>
  <circle cx="700" cy="360" r="20" fill="#FFFFFF" opacity="0.22"/>
  </g>

  <!-- Wireframe overlay: Type A (infinite baseline, open top/bottom), volatile income wave masked to its zero-line -->
  <g stroke="#FFFFFF" stroke-width="0.75" opacity="0.15">
    <line x1="144" y1="108" x2="144" y2="432" vector-effect="non-scaling-stroke"/>
    <line x1="368" y1="108" x2="368" y2="432" vector-effect="non-scaling-stroke"/>
    <line x1="592" y1="108" x2="592" y2="432" vector-effect="non-scaling-stroke"/>
    <line x1="816" y1="108" x2="816" y2="432" vector-effect="non-scaling-stroke"/>
    <line x1="144" y1="216" x2="816" y2="216" vector-effect="non-scaling-stroke"/>
    <line x1="144" y1="324" x2="816" y2="324" vector-effect="non-scaling-stroke"/>
  </g>
  <line x1="0" y1="270" x2="960" y2="270" stroke="#FFFFFF" stroke-width="1" opacity="0.4" stroke-dasharray="4,4" vector-effect="non-scaling-stroke"/>
  <path d="M144,270 C210,162 300,162 368,270 C436,378 526,378 592,270 C660,162 750,162 816,270 Z" fill="url(#areaFade)" opacity="0.9"/>
  <path d="M144,270 C210,162 300,162 368,270 C436,378 526,378 592,270 C660,162 750,162 816,270" stroke="#FFFFFF" stroke-width="1.5" opacity="0.95" fill="none" stroke-linecap="round" vector-effect="non-scaling-stroke"/>
  <g fill="#FFFFFF">
    <circle cx="144" cy="270" r="5" opacity="0.25"/>
    <circle cx="144" cy="270" r="1.6" opacity="0.8"/>
    <circle cx="816" cy="270" r="5" opacity="0.25"/>
    <circle cx="816" cy="270" r="1.6" opacity="0.8"/>
  </g>
</svg>
