<svg xmlns="http://www.w3.org/2000/svg" width="960" height="540" viewBox="0 0 960 540">
  <defs>
    <linearGradient id="bg" x1="5%" y1="-10%" x2="95%" y2="110%">
      <stop offset="0%" stop-color="#0A2472"/>
      <stop offset="100%" stop-color="#1E3A8A"/>
    </linearGradient>
    <filter id="blurXL" x="-100%" y="-100%" width="300%" height="300%">
      <feGaussianBlur stdDeviation="65"/>
    </filter>
    <filter id="blurL" x="-100%" y="-100%" width="300%" height="300%">
      <feGaussianBlur stdDeviation="38"/>
    </filter>
    <filter id="blurM" x="-100%" y="-100%" width="300%" height="300%">
      <feGaussianBlur stdDeviation="24"/>
    </filter>
    <filter id="grain">
      <feTurbulence type="fractalNoise" baseFrequency="0.9" numOctaves="4" stitchTiles="stitch" result="noise"/>
      <feColorMatrix in="noise" type="matrix" values="0 0 0 0 1  0 0 0 0 1  0 0 0 0 1  0 0 0 0.6 0"/>
    </filter>
  </defs>

  <rect width="960" height="540" fill="url(#bg)"/>

  <circle cx="-60" cy="-60" r="220" fill="#7C4DFF" opacity="0.7" filter="url(#blurXL)" style="mix-blend-mode:screen"/>
  <circle cx="300" cy="250" r="160" fill="#B39DDB" opacity="0.5" filter="url(#blurXL)" style="mix-blend-mode:screen"/>
  <circle cx="590" cy="380" r="80" fill="#536DFE" opacity="0.32" filter="url(#blurL)" style="mix-blend-mode:screen"/>
  <circle cx="1020" cy="590" r="190" fill="#050E33" opacity="0.45" filter="url(#blurXL)"/>

  <rect width="960" height="540" filter="url(#grain)" style="mix-blend-mode:overlay" opacity="0.4"/>

  <g filter="url(#blurM)">
  <circle cx="250" cy="210" r="70" fill="#FFFFFF" opacity="0.24"/>
  <circle cx="390" cy="280" r="46" fill="#FFFFFF" opacity="0.2"/>
  <circle cx="500" cy="350" r="30" fill="#FFFFFF" opacity="0.16"/>
  <circle cx="600" cy="410" r="18" fill="#FFFFFF" opacity="0.14"/>
  </g>

  <!-- Wireframe overlay: category breakdown ring, anchored in a centered safe zone -->
  <g stroke="#FFFFFF" stroke-width="0.75" opacity="0.15">
    <rect x="240" y="162" width="480" height="216" fill="none"/>
    <line x1="400" y1="162" x2="400" y2="378"/>
    <line x1="560" y1="162" x2="560" y2="378"/>
    <line x1="240" y1="234" x2="720" y2="234"/>
    <line x1="240" y1="306" x2="720" y2="306"/>
  </g>
  <g stroke="#FFFFFF" fill="none" stroke-linecap="round">
    <circle cx="480" cy="270" r="90" stroke-width="1" opacity="0.4"/>
    <line x1="480" y1="270" x2="570" y2="270" stroke-width="1.5" opacity="0.95"/>
    <line x1="480" y1="270" x2="511" y2="355" stroke-width="1" opacity="0.45" stroke-dasharray="4,4"/>
    <line x1="480" y1="270" x2="395" y2="301" stroke-width="1" opacity="0.45" stroke-dasharray="4,4"/>
    <line x1="480" y1="270" x2="457" y2="183" stroke-width="1" opacity="0.45" stroke-dasharray="4,4"/>
  </g>
  <g fill="#FFFFFF">
    <circle cx="480" cy="270" r="4" opacity="0.5"/>
    <circle cx="570" cy="270" r="6" opacity="0.3"/>
    <circle cx="570" cy="270" r="2" opacity="1"/>
  </g>
</svg>
