<svg xmlns="http://www.w3.org/2000/svg" width="960" height="540" viewBox="0 0 960 540">
  <!-- Editorial system · Mood: dispersion, drift · Composition: cropped mass with fragments drifting away · Palette: indigo/violet -->
  <defs>
    <linearGradient id="bg" x1="0%" y1="0%" x2="100%" y2="100%">
      <stop offset="0%" stop-color="#EDECF4"/>
      <stop offset="55%" stop-color="#E3E2EE"/>
      <stop offset="100%" stop-color="#D7D6E6"/>
    </linearGradient>
    <filter id="bloom" x="-80%" y="-80%" width="260%" height="260%">
      <feGaussianBlur stdDeviation="70"/>
    </filter>
    <filter id="soft" x="-30%" y="-30%" width="160%" height="160%">
      <feGaussianBlur stdDeviation="16"/>
    </filter>
    <filter id="drift" x="-60%" y="-60%" width="220%" height="220%">
      <feGaussianBlur stdDeviation="2.5"/>
    </filter>
    <filter id="grain">
      <feTurbulence type="fractalNoise" baseFrequency="0.9" numOctaves="2" stitchTiles="stitch"/>
      <feColorMatrix type="matrix" values="0 0 0 0 0  0 0 0 0 0  0 0 0 0 0  0 0 0 0.04 0"/>
    </filter>
  </defs>

  <rect width="960" height="540" fill="url(#bg)"/>
  <ellipse cx="760" cy="110" rx="320" ry="190" fill="#FFFFFF" opacity="0.55" filter="url(#bloom)"/>

  <!-- the mass, cropped off the left edge -->
  <rect x="-210" y="20" width="580" height="580" rx="150" fill="#8489B3" opacity="0.30" transform="rotate(-10 80 310)" filter="url(#soft)"/>
  <rect x="-260" y="50" width="560" height="560" rx="145" fill="#5D628F" opacity="0.94" transform="rotate(-10 20 330)"/>

  <!-- fragments drifting away, spacing widening, presence fading -->
  <rect x="446" y="216" width="104" height="104" rx="34" fill="#5D628F" opacity="0.55" transform="rotate(14 498 268)"/>
  <rect x="622" y="204" width="72" height="72" rx="24" fill="#8489B3" opacity="0.46" transform="rotate(-10 658 240)"/>
  <rect x="800" y="192" width="48" height="48" rx="16" fill="#ACB0CE" opacity="0.42" transform="rotate(22 824 216)" filter="url(#drift)"/>

  <rect width="960" height="540" filter="url(#grain)"/>
</svg>
