<svg width="117" height="124" viewBox="0 0 117 124" fill="none" xmlns="http://www.w3.org/2000/svg">
<path d="M19.2354 0.00585938C20.1465 0.0289268 21.0406 0.120439 21.9131 0.274414H98.3838L98.8438 0.280273C108.469 0.52434 116.197 8.40379 116.197 18.0879L116.191 18.5479C115.951 28.02 108.316 35.6543 98.8438 35.8945L98.3838 35.9004H36.7334V43.8477H98.2461C108.105 43.8477 116.107 51.7964 116.194 61.6348C116.202 61.8506 116.208 62.0675 116.208 62.2852V104.838L116.202 105.312C116.201 105.356 116.198 105.399 116.196 105.443C116.196 105.465 116.197 105.487 116.197 105.509L116.195 105.591C116.195 105.609 116.197 105.627 116.197 105.646L116.191 106.108C115.95 115.654 108.256 123.348 98.71 123.59L98.2471 123.596H97.4248C96.3527 123.596 95.3026 123.501 94.2822 123.321H17.8135L17.3535 123.315C7.88097 123.075 0.246099 115.441 0.00585938 105.969L0 105.509C0.000162351 95.8247 7.72811 87.945 17.3535 87.7012L17.8135 87.6953H79.4746V79.748H17.9502C8.03658 79.748 0 71.7115 0 61.7979C1.65004e-06 61.698 0.00130527 61.5984 0.00292969 61.499L0 61.1943V18.6416C0 18.5429 0.00137929 18.444 0.00292969 18.3457L0 18.0879C0 18.0659 0.000896894 18.0435 0.000976562 18.0215C0.000884204 17.9977 0 17.974 0 17.9502C1.13397e-05 8.03658 8.03658 1.17149e-05 17.9502 0H18.7725L19.2354 0.00585938ZM17.8135 95.917C12.5162 95.917 8.22184 100.212 8.22168 105.509C8.22183 110.806 12.5162 115.101 17.8135 115.101H82.165C80.4601 112.355 79.4746 109.115 79.4746 105.646C79.4746 105.512 79.4766 105.379 79.4795 105.246L79.4746 104.838V95.917H17.8135ZM97.4248 95.917C92.1844 95.917 87.9138 100.061 87.7061 105.25C87.9226 110.662 92.3769 114.982 97.8418 114.982C103.255 114.982 107.676 110.742 107.969 105.401C107.843 100.308 103.807 96.1864 98.748 95.9297L98.2471 95.917H97.4248ZM107.986 76.876C105.181 78.6921 101.837 79.748 98.2461 79.748H87.6963V87.6953H98.3838L98.8438 87.7012C102.206 87.7864 105.336 88.8041 107.986 90.5039V76.876ZM36.7334 61.1943L36.7275 61.668C36.635 65.3189 35.4758 68.7043 33.5518 71.5264H79.4746V62.2852C79.4746 58.5042 80.6176 54.9903 82.5762 52.0693H36.7334V61.1943ZM97.8418 52.1396C92.2387 52.1396 87.6963 56.6821 87.6963 62.2852V71.5264H98.2461C103.607 71.5264 107.953 67.1916 107.974 61.8359C107.739 56.4414 103.294 52.1399 97.8418 52.1396ZM17.9502 52.0693C12.6799 52.0694 8.39066 56.2603 8.22852 61.4912C8.38607 66.9565 12.8637 71.3389 18.3672 71.3389C23.9698 71.3386 28.5113 66.7969 28.5117 61.1943V52.0693H17.9502ZM8.22168 46.7109C11.0248 44.8997 14.3646 43.8477 17.9502 43.8477H28.5117V35.9004H17.8135L17.3535 35.8945C13.9958 35.8095 10.8701 34.7934 8.22168 33.0977V46.7109ZM34.0322 8.49609C35.7369 11.2418 36.7227 14.4806 36.7227 17.9502L36.7217 18.0215C36.7285 18.2272 36.7334 18.4342 36.7334 18.6416V27.6797H98.3838C103.681 27.6796 107.975 23.3848 107.976 18.0879C107.976 12.7906 103.681 8.4962 98.3838 8.49609H34.0322ZM18.3672 8.49609C12.878 8.4961 8.41004 12.8553 8.23047 18.3008C8.41507 23.5114 12.6946 27.6787 17.9502 27.6787H18.7725C24.0936 27.6787 28.4131 23.4068 28.4961 18.1055C28.2175 12.7516 23.7904 8.49631 18.3672 8.49609Z" fill="#3C67D9"/>
</svg>
