<svg width="41" height="43" viewBox="0 0 41 43" fill="none" xmlns="http://www.w3.org/2000/svg">
<path d="M6.8252 0.0078125C7.08469 0.0209758 7.3397 0.0516849 7.58984 0.0957031H34.0908C37.4998 0.0957031 40.2636 2.85963 40.2637 6.26855L40.2559 6.58594C40.0905 9.84726 37.3932 12.4404 34.0908 12.4404H12.7285V15.1934H34.0439L34.3643 15.2012C37.5975 15.3653 40.1764 17.9987 40.2588 21.2529C40.2643 21.3619 40.2676 21.4716 40.2676 21.582V36.3271C40.2676 36.3905 40.2636 36.4537 40.2617 36.5166C40.2618 36.5314 40.2637 36.5467 40.2637 36.5615L40.2627 36.5879C40.2627 36.5946 40.2637 36.6017 40.2637 36.6084C40.2635 39.936 37.6505 42.6536 34.3643 42.8203L34.0439 42.8291H33.7588L33.4395 42.8203C33.183 42.8073 32.9309 42.7765 32.6836 42.7334H6.17285L5.85449 42.7256C2.69866 42.5654 0.168004 40.0347 0.0078125 36.8789L0 36.5615C0 33.2592 2.59331 30.562 5.85449 30.3965L6.17285 30.3887H27.5391V27.6338H6.21973L5.90039 27.625C2.61372 27.4586 0 24.7411 0 21.4131C1.6472e-06 21.3785 0.00138935 21.344 0.00195312 21.3096C0.00139461 21.2748 0 21.2399 0 21.2051V6.45996C9.90189e-07 6.42702 0.00145335 6.39415 0.00195312 6.36133L0 6.26855V6.21973C0.000141473 2.78473 2.78473 0.000140218 6.21973 0H6.50488L6.8252 0.0078125ZM6.17285 32.3887C3.86844 32.3887 2 34.2571 2 36.5615C2.00038 38.8656 3.86867 40.7334 6.17285 40.7334H29.1064C28.1323 39.6355 27.5392 38.1916 27.5391 36.6084C27.5391 36.5618 27.541 36.5151 27.542 36.4688C27.541 36.4217 27.5391 36.3744 27.5391 36.3271V32.3887H6.17285ZM33.7588 32.3887C31.4748 32.389 29.6151 34.2034 29.542 36.4697C29.6171 38.8141 31.5408 40.6912 33.9033 40.6914C36.2433 40.6914 38.1522 38.85 38.2617 36.5371C38.2249 34.312 36.4678 32.5056 34.2617 32.3936L34.0439 32.3887H33.7588ZM38.2676 25.9766C37.2313 26.9362 35.869 27.5486 34.3643 27.625L34.0439 27.6338H29.5391V30.3887H34.0908C35.7017 30.3887 37.1683 31.0058 38.2676 32.0166V25.9766ZM12.7285 21.2051C12.7285 22.927 12.0435 24.4881 10.9326 25.6338H27.5391V21.582C27.5391 19.8801 28.2086 18.3353 29.2969 17.1934H12.7285V21.2051ZM33.9033 17.2178C31.4932 17.218 29.5392 19.1719 29.5391 21.582V25.6338H34.0439C36.3716 25.6337 38.258 23.7484 38.2627 21.4219C38.1782 19.0859 36.2599 17.2178 33.9033 17.2178ZM6.21973 17.1934C3.9236 17.1935 2.05657 19.0275 2.00195 21.3105C2.05791 23.6722 3.98916 25.5693 6.36426 25.5693C8.77461 25.5693 10.7285 23.6154 10.7285 21.2051V17.1934H6.21973ZM2 16.8457C3.10885 15.8208 4.59069 15.1934 6.21973 15.1934H10.7285V12.4404H6.17285L5.85449 12.4326C4.37096 12.3573 3.02591 11.758 2 10.8164V16.8457ZM6.36426 2.0957C3.99517 2.09574 2.0682 3.98359 2.00293 6.33691C2.06501 8.61328 3.92841 10.4403 6.21973 10.4404H6.50488C8.82084 10.4404 10.6991 8.57406 10.7227 6.26367C10.6199 3.94453 8.70874 2.0957 6.36426 2.0957ZM11.1592 2.0957C12.1325 3.19353 12.7245 4.63719 12.7246 6.21973C12.7246 6.23211 12.7237 6.24447 12.7236 6.25684C12.7258 6.3243 12.7285 6.39198 12.7285 6.45996V10.4404H34.0908C36.3951 10.4404 38.2635 8.57281 38.2637 6.26855C38.2636 3.9642 36.3952 2.0957 34.0908 2.0957H11.1592Z" fill="#3C67D9"/>
</svg>
