<svg width="173" height="154" viewBox="0 0 173 154" fill="none" xmlns="http://www.w3.org/2000/svg">
<path d="M149.372 108.616C150.225 108.616 150.896 109.349 150.795 110.196C147.966 133.842 128.467 152.268 104.116 153.806H67.8529C67.0502 153.806 66.3994 153.155 66.3994 152.352V110.07C66.3994 109.267 67.0502 108.616 67.8529 108.616H149.372ZM82.9727 58.5265C83.8253 58.5265 84.4965 59.2596 84.3952 60.1062C81.5665 83.7519 62.0673 102.179 37.7168 103.717H1.45352C0.650764 103.717 0 103.066 0 102.263V59.98C0 59.1773 0.650764 58.5265 1.45352 58.5265H82.9727ZM172.593 92.2031C172.593 93.0061 171.943 93.6574 171.139 93.6574H90.2416C89.3668 93.6574 88.689 92.8874 88.8263 92.0235C92.609 68.2277 112.805 50.7997 137.041 50.1535L171.116 50.0879C171.919 50.0863 172.572 50.7371 172.572 51.5407L172.593 92.2031ZM106.204 42.1152C106.205 42.9182 105.554 43.5695 104.751 43.5695H23.8529C22.9782 43.5695 22.3003 42.7996 22.4376 41.9356C26.2199 18.1397 46.405 0.711565 70.6523 0.0655616L104.726 2.74903e-06C105.53 -0.00154329 106.182 0.649196 106.182 1.45274L106.204 42.1152Z" fill="#2A60EE"/>
</svg>
