<svg xmlns="http://www.w3.org/2000/svg" width="960" height="540" viewBox="0 0 960 540">
  <defs>
    <linearGradient id="bg" x1="10%" y1="-8%" x2="80%" y2="106%">
      <stop offset="0%" stop-color="#0D1155"/>
      <stop offset="100%" stop-color="#283593"/>
    </linearGradient>
    <filter id="blurXL" x="-100%" y="-100%" width="300%" height="300%">
      <feGaussianBlur stdDeviation="65"/>
    </filter>
    <filter id="blurL" x="-100%" y="-100%" width="300%" height="300%">
      <feGaussianBlur stdDeviation="38"/>
    </filter>
    <filter id="grain">
      <feTurbulence type="fractalNoise" baseFrequency="0.9" numOctaves="4" stitchTiles="stitch" result="noise"/>
      <feColorMatrix in="noise" type="matrix" values="0 0 0 0 1  0 0 0 0 1  0 0 0 0 1  0 0 0 0.6 0"/>
    </filter>
  </defs>

  <rect width="960" height="540" fill="url(#bg)"/>

  <circle cx="120" cy="-25" r="245" fill="#4FC3F7" opacity="0.6" filter="url(#blurXL)" style="mix-blend-mode:screen"/>
  <circle cx="-35" cy="255" r="180" fill="#B3E5FC" opacity="0.45" filter="url(#blurXL)" style="mix-blend-mode:screen"/>
  <circle cx="225" cy="55" r="88" fill="#18FFFF" opacity="0.3" filter="url(#blurL)" style="mix-blend-mode:screen"/>
  <circle cx="35" cy="515" r="200" fill="#070830" opacity="0.48" filter="url(#blurXL)"/>

  <rect width="960" height="540" filter="url(#grain)" style="mix-blend-mode:overlay" opacity="0.4"/>

  <rect x="118" y="82" width="900" height="520" rx="24" fill="#04051F" opacity="0.26" filter="url(#blurL)"/>
  <rect x="110" y="70" width="900" height="520" rx="22" fill="#FFFFFF"/>

  <g font-family="Arial, Helvetica, sans-serif" font-weight="400">
    <text x="150" y="130" font-size="20" fill="#6B7280">Essential monthly expenses</text>
    <rect x="150" y="148" width="790" height="54" rx="10" fill="#FFFFFF" stroke="#E5E7EB" stroke-width="1.5"/>
    <text x="174" y="184" font-size="23" fill="#9CA3AF">$</text>
    <text x="198" y="184" font-size="24" fill="#374151">3,200</text>

    <text x="150" y="256" font-size="20" fill="#4B5563">Months of coverage</text>
    <g font-size="19">
      <rect x="150" y="272" width="120" height="42" rx="21" fill="#FFFFFF" stroke="#E5E7EB" stroke-width="1.5"/>
      <text x="210" y="299" fill="#4B5563" text-anchor="middle">3 months</text>
      <rect x="286" y="272" width="120" height="42" rx="21" fill="#1F2937"/>
      <text x="346" y="299" fill="#FFFFFF" text-anchor="middle">6 months</text>
      <rect x="422" y="272" width="120" height="42" rx="21" fill="#FFFFFF" stroke="#E5E7EB" stroke-width="1.5"/>
      <text x="482" y="299" fill="#4B5563" text-anchor="middle">9 months</text>
      <rect x="558" y="272" width="132" height="42" rx="21" fill="#FFFFFF" stroke="#E5E7EB" stroke-width="1.5"/>
      <text x="624" y="299" fill="#4B5563" text-anchor="middle">12 months</text>
    </g>

    <text x="150" y="388" font-size="20" fill="#4B5563">Target emergency fund</text>
    <text x="150" y="446" font-size="52" fill="#1F2937">$19,200</text>
  </g>
</svg>
