<svg xmlns="http://www.w3.org/2000/svg" width="960" height="540" viewBox="0 0 960 540">
  <defs>
    <linearGradient id="bg" x1="12%" y1="-6%" x2="78%" y2="106%">
      <stop offset="0%" stop-color="#081620"/>
      <stop offset="100%" stop-color="#1C3A52"/>
    </linearGradient>
    <filter id="blurXL" x="-100%" y="-100%" width="300%" height="300%">
      <feGaussianBlur stdDeviation="65"/>
    </filter>
    <filter id="blurL" x="-100%" y="-100%" width="300%" height="300%">
      <feGaussianBlur stdDeviation="38"/>
    </filter>
    <filter id="grain">
      <feTurbulence type="fractalNoise" baseFrequency="0.9" numOctaves="4" stitchTiles="stitch" result="noise"/>
      <feColorMatrix in="noise" type="matrix" values="0 0 0 0 1  0 0 0 0 1  0 0 0 0 1  0 0 0 0.6 0"/>
    </filter>
  </defs>

  <rect width="960" height="540" fill="url(#bg)"/>

  <circle cx="130" cy="-20" r="240" fill="#90CAF9" opacity="0.55" filter="url(#blurXL)" style="mix-blend-mode:screen"/>
  <circle cx="-30" cy="250" r="180" fill="#E1F5FE" opacity="0.4" filter="url(#blurXL)" style="mix-blend-mode:screen"/>
  <circle cx="220" cy="60" r="90" fill="#7C4DFF" opacity="0.32" filter="url(#blurL)" style="mix-blend-mode:screen"/>
  <circle cx="30" cy="520" r="200" fill="#040B10" opacity="0.5" filter="url(#blurXL)"/>

  <rect width="960" height="540" filter="url(#grain)" style="mix-blend-mode:overlay" opacity="0.4"/>

  <rect x="118" y="82" width="900" height="520" rx="24" fill="#020A12" opacity="0.28" filter="url(#blurL)"/>
  <rect x="110" y="70" width="900" height="520" rx="22" fill="#FFFFFF"/>

  <g font-family="Arial, Helvetica, sans-serif" font-weight="400">
    <text x="150" y="128" font-size="20" fill="#6B7280">Extra monthly payment</text>
    <text x="150" y="178" font-size="46" fill="#1F2937">$200</text>

    <!-- Slider -->
    <line x1="150" y1="214" x2="940" y2="214" stroke="#EEF1F4" stroke-width="6" stroke-linecap="round"/>
    <line x1="150" y1="214" x2="308" y2="214" stroke="#1F2937" stroke-width="6" stroke-linecap="round"/>
    <circle cx="308" cy="214" r="13" fill="#FFFFFF" stroke="#CBD5E1" stroke-width="1.5"/>
    <text x="150" y="250" font-size="16" fill="#9CA3AF">$0</text>

    <!-- Avalanche -->
    <text x="150" y="304" font-size="20" fill="#4B5563">Avalanche <tspan font-size="16" fill="#9CA3AF">Highest rate first</tspan></text>
    <rect x="150" y="318" width="790" height="10" rx="5" fill="#EEF1F4"/>
    <rect x="150" y="318" width="600" height="10" rx="5" fill="#2563EB"/>

    <!-- Snowball -->
    <text x="150" y="376" font-size="20" fill="#4B5563">Snowball <tspan font-size="16" fill="#9CA3AF">Smallest balance first</tspan></text>
    <rect x="150" y="390" width="790" height="10" rx="5" fill="#EEF1F4"/>
    <rect x="150" y="390" width="680" height="10" rx="5" fill="#6B7280"/>

    <text x="150" y="448" font-size="18" fill="#6B7280">Avalanche saves roughly 8% more in interest.</text>
  </g>
</svg>
