<svg xmlns="http://www.w3.org/2000/svg" width="960" height="540" viewBox="0 0 960 540">
  <defs>
    <linearGradient id="bg" x1="8%" y1="-8%" x2="82%" y2="108%">
      <stop offset="0%" stop-color="#3A1900"/>
      <stop offset="100%" stop-color="#8A4A00"/>
    </linearGradient>
    <filter id="blurXL" x="-100%" y="-100%" width="300%" height="300%">
      <feGaussianBlur stdDeviation="65"/>
    </filter>
    <filter id="blurL" x="-100%" y="-100%" width="300%" height="300%">
      <feGaussianBlur stdDeviation="38"/>
    </filter>
    <filter id="grain">
      <feTurbulence type="fractalNoise" baseFrequency="0.9" numOctaves="4" stitchTiles="stitch" result="noise"/>
      <feColorMatrix in="noise" type="matrix" values="0 0 0 0 1  0 0 0 0 1  0 0 0 0 1  0 0 0 0.6 0"/>
    </filter>
  </defs>

  <rect width="960" height="540" fill="url(#bg)"/>

  <circle cx="140" cy="-30" r="240" fill="#26C6DA" opacity="0.6" filter="url(#blurXL)" style="mix-blend-mode:screen"/>
  <circle cx="-30" cy="240" r="180" fill="#80DEEA" opacity="0.45" filter="url(#blurXL)" style="mix-blend-mode:screen"/>
  <circle cx="230" cy="70" r="90" fill="#00E0D0" opacity="0.3" filter="url(#blurL)" style="mix-blend-mode:screen"/>
  <circle cx="40" cy="520" r="200" fill="#2A1400" opacity="0.45" filter="url(#blurXL)"/>

  <rect width="960" height="540" filter="url(#grain)" style="mix-blend-mode:overlay" opacity="0.4"/>

  <rect x="118" y="82" width="900" height="520" rx="24" fill="#1E0F00" opacity="0.22" filter="url(#blurL)"/>
  <rect x="110" y="70" width="900" height="520" rx="22" fill="#FFFFFF"/>

  <g font-family="Arial, Helvetica, sans-serif" font-weight="400">
    <text x="150" y="130" font-size="20" fill="#6B7280">Take-home pay per paycheck</text>
    <rect x="150" y="148" width="790" height="54" rx="10" fill="#FFFFFF" stroke="#E5E7EB" stroke-width="1.5"/>
    <text x="174" y="184" font-size="23" fill="#9CA3AF">$</text>
    <text x="198" y="184" font-size="24" fill="#374151">2,100</text>

    <text x="150" y="256" font-size="20" fill="#4B5563">Typical month <tspan font-size="16" fill="#9CA3AF">(2 paychecks)</tspan></text>
    <text x="150" y="302" font-size="42" fill="#1F2937">$4,200</text>
    <line x1="150" y1="332" x2="940" y2="332" stroke="#EEF1F4" stroke-width="1.5"/>

    <text x="150" y="384" font-size="20" fill="#4B5563">3-paycheck month <tspan font-size="16" fill="#9CA3AF">(~2x a year)</tspan></text>
    <text x="150" y="430" font-size="42" fill="#1F2937">$6,300</text>
    <line x1="150" y1="460" x2="940" y2="460" stroke="#EEF1F4" stroke-width="1.5"/>

    <text x="150" y="512" font-size="20" fill="#4B5563">Steady average <tspan font-size="16" fill="#9CA3AF">(all year)</tspan></text>
    <text x="150" y="558" font-size="42" fill="#1F2937">$4,550</text>
  </g>
</svg>
