<svg xmlns="http://www.w3.org/2000/svg" width="960" height="540" viewBox="0 0 960 540">
  <defs>
    <linearGradient id="bg" x1="10%" y1="-5%" x2="80%" y2="105%">
      <stop offset="0%" stop-color="#0B3D91"/>
      <stop offset="100%" stop-color="#1565C0"/>
    </linearGradient>
    <filter id="blurXL" x="-100%" y="-100%" width="300%" height="300%">
      <feGaussianBlur stdDeviation="65"/>
    </filter>
    <filter id="blurL" x="-100%" y="-100%" width="300%" height="300%">
      <feGaussianBlur stdDeviation="38"/>
    </filter>
    <filter id="grain">
      <feTurbulence type="fractalNoise" baseFrequency="0.9" numOctaves="4" stitchTiles="stitch" result="noise"/>
      <feColorMatrix in="noise" type="matrix" values="0 0 0 0 1  0 0 0 0 1  0 0 0 0 1  0 0 0 0.6 0"/>
    </filter>
  </defs>

  <!-- Article mesh background (gradient + glow + grain), no wireframe/motif -->
  <rect width="960" height="540" fill="url(#bg)"/>

  <circle cx="120" cy="-20" r="240" fill="#4FC3F7" opacity="0.7" filter="url(#blurXL)" style="mix-blend-mode:screen"/>
  <circle cx="-40" cy="260" r="180" fill="#80D8FF" opacity="0.5" filter="url(#blurXL)" style="mix-blend-mode:screen"/>
  <circle cx="210" cy="60" r="90" fill="#18FFFF" opacity="0.32" filter="url(#blurL)" style="mix-blend-mode:screen"/>
  <circle cx="30" cy="520" r="200" fill="#0D47A1" opacity="0.45" filter="url(#blurXL)"/>

  <rect width="960" height="540" filter="url(#grain)" style="mix-blend-mode:overlay" opacity="0.4"/>

  <!-- Tool UI panel, cropped, emerging from the bottom-right -->
  <rect x="118" y="82" width="900" height="520" rx="24" fill="#062350" opacity="0.22" filter="url(#blurL)"/>
  <rect x="110" y="70" width="900" height="520" rx="22" fill="#FFFFFF"/>

  <g font-family="Arial, Helvetica, sans-serif">
    <!-- Income input -->
    <text x="150" y="130" font-size="20" font-weight="500" fill="#6B7280">Monthly take-home income</text>
    <rect x="150" y="148" width="790" height="54" rx="10" fill="#FFFFFF" stroke="#E5E7EB" stroke-width="1.5"/>
    <text x="174" y="184" font-size="23" fill="#9CA3AF">$</text>
    <text x="198" y="184" font-size="24" font-weight="500" fill="#374151">5,360</text>

    <!-- Needs -->
    <text x="150" y="256" font-size="20" font-weight="600" fill="#374151">Needs</text>
    <text x="150" y="300" font-size="42" font-weight="700" fill="#1F2937">$2,680</text>
    <rect x="150" y="316" width="790" height="7" rx="3.5" fill="#EEF1F4"/>
    <rect x="150" y="316" width="800" height="7" rx="3.5" fill="#2563EB"/>

    <!-- Wants -->
    <text x="150" y="368" font-size="20" font-weight="600" fill="#374151">Wants</text>
    <text x="150" y="412" font-size="42" font-weight="700" fill="#1F2937">$1,608</text>
    <rect x="150" y="428" width="790" height="7" rx="3.5" fill="#EEF1F4"/>
    <rect x="150" y="428" width="474" height="7" rx="3.5" fill="#6B7280"/>

    <!-- Savings & Debt (cropped at bottom edge) -->
    <text x="150" y="480" font-size="20" font-weight="600" fill="#374151">Savings &amp; Debt</text>
    <text x="150" y="524" font-size="42" font-weight="700" fill="#1F2937">$1,072</text>
    <rect x="150" y="540" width="790" height="7" rx="3.5" fill="#EEF1F4"/>
    <rect x="150" y="540" width="316" height="7" rx="3.5" fill="#1F2937"/>
  </g>
</svg>
