<svg xmlns="http://www.w3.org/2000/svg" width="960" height="540" viewBox="0 0 960 540">
  <defs>
    <linearGradient id="bg" x1="10%" y1="-8%" x2="80%" y2="106%">
      <stop offset="0%" stop-color="#3B1070"/>
      <stop offset="100%" stop-color="#6A1B9A"/>
    </linearGradient>
    <filter id="blurXL" x="-100%" y="-100%" width="300%" height="300%">
      <feGaussianBlur stdDeviation="65"/>
    </filter>
    <filter id="blurL" x="-100%" y="-100%" width="300%" height="300%">
      <feGaussianBlur stdDeviation="38"/>
    </filter>
    <filter id="grain">
      <feTurbulence type="fractalNoise" baseFrequency="0.9" numOctaves="4" stitchTiles="stitch" result="noise"/>
      <feColorMatrix in="noise" type="matrix" values="0 0 0 0 1  0 0 0 0 1  0 0 0 0 1  0 0 0 0.6 0"/>
    </filter>
  </defs>

  <rect width="960" height="540" fill="url(#bg)"/>

  <circle cx="130" cy="-25" r="242" fill="#F06292" opacity="0.5" filter="url(#blurXL)" style="mix-blend-mode:screen"/>
  <circle cx="-30" cy="250" r="180" fill="#F8BBD0" opacity="0.4" filter="url(#blurXL)" style="mix-blend-mode:screen"/>
  <circle cx="225" cy="60" r="88" fill="#EC407A" opacity="0.32" filter="url(#blurL)" style="mix-blend-mode:screen"/>
  <circle cx="35" cy="515" r="200" fill="#22073F" opacity="0.48" filter="url(#blurXL)"/>

  <rect width="960" height="540" filter="url(#grain)" style="mix-blend-mode:overlay" opacity="0.4"/>

  <rect x="118" y="82" width="900" height="520" rx="24" fill="#15042A" opacity="0.26" filter="url(#blurL)"/>
  <rect x="110" y="70" width="900" height="520" rx="22" fill="#FFFFFF"/>

  <g font-family="Arial, Helvetica, sans-serif" font-weight="400">
    <text x="150" y="130" font-size="18" fill="#9CA3AF">Question 3 of 7</text>
    <rect x="150" y="146" width="790" height="6" rx="3" fill="#EEF1F4"/>
    <rect x="150" y="146" width="338" height="6" rx="3" fill="#1F2937"/>

    <text x="150" y="206" font-size="24" fill="#1F2937">How do you feel about tracking every purchase?</text>

    <rect x="150" y="238" width="790" height="54" rx="12" fill="#F9FAFB" stroke="#E5E7EB" stroke-width="1.5"/>
    <text x="176" y="272" font-size="20" fill="#374151">I love seeing every detail</text>

    <rect x="150" y="308" width="790" height="54" rx="12" fill="#F9FAFB" stroke="#E5E7EB" stroke-width="1.5"/>
    <text x="176" y="342" font-size="20" fill="#374151">I'd rather set it and forget it</text>

    <rect x="150" y="378" width="790" height="54" rx="12" fill="#F9FAFB" stroke="#E5E7EB" stroke-width="1.5"/>
    <text x="176" y="412" font-size="20" fill="#374151">Somewhere in between</text>

    <rect x="150" y="448" width="790" height="54" rx="12" fill="#F9FAFB" stroke="#E5E7EB" stroke-width="1.5"/>
    <text x="176" y="482" font-size="20" fill="#374151">It depends on the month</text>
  </g>
</svg>
