<svg xmlns="http://www.w3.org/2000/svg" width="960" height="540" viewBox="0 0 960 540" color="#081122">
  <!-- Wireframe for card-v3-budget-biweekly-paycheck.svg. Draw in currentColor only; the
       generator (scripts/generate-article-cards.mjs) supplies the color,
       the background, and the areaFade gradient. -->
  <!-- Wireframe overlay: Full Horizontal Bleed, recurring paycheck ticks with the extra one highlighted -->
  <g stroke="currentColor" stroke-width="0.75" opacity="0.15">
    <line x1="144" y1="108" x2="144" y2="432" vector-effect="non-scaling-stroke"/>
    <line x1="368" y1="108" x2="368" y2="432" vector-effect="non-scaling-stroke"/>
    <line x1="592" y1="108" x2="592" y2="432" vector-effect="non-scaling-stroke"/>
    <line x1="816" y1="108" x2="816" y2="432" vector-effect="non-scaling-stroke"/>
    <line x1="0" y1="108" x2="960" y2="108" vector-effect="non-scaling-stroke"/>
    <line x1="0" y1="216" x2="960" y2="216" vector-effect="non-scaling-stroke"/>
    <line x1="0" y1="324" x2="960" y2="324" vector-effect="non-scaling-stroke"/>
    <line x1="0" y1="432" x2="960" y2="432" vector-effect="non-scaling-stroke"/>
  </g>
  <line x1="0" y1="324" x2="960" y2="324" stroke="currentColor" stroke-width="1" opacity="0.35" vector-effect="non-scaling-stroke"/>
  <g stroke="currentColor" fill="none" stroke-linecap="round">
    <line x1="144" y1="324" x2="144" y2="162" stroke-width="1.5" opacity="0.95" vector-effect="non-scaling-stroke"/>
    <line x1="256" y1="324" x2="256" y2="270" stroke-width="1" opacity="0.45" vector-effect="non-scaling-stroke"/>
    <line x1="368" y1="324" x2="368" y2="270" stroke-width="1" opacity="0.45" vector-effect="non-scaling-stroke"/>
    <line x1="480" y1="324" x2="480" y2="162" stroke-width="1.5" opacity="0.95" vector-effect="non-scaling-stroke"/>
    <line x1="592" y1="324" x2="592" y2="270" stroke-width="1" opacity="0.45" vector-effect="non-scaling-stroke"/>
    <line x1="704" y1="324" x2="704" y2="270" stroke-width="1" opacity="0.45" vector-effect="non-scaling-stroke"/>
    <line x1="816" y1="324" x2="816" y2="162" stroke-width="1.5" opacity="0.95" vector-effect="non-scaling-stroke"/>
  </g>
  <g fill="currentColor">
    <circle cx="144" cy="162" r="6" opacity="0.3"/>
    <circle cx="144" cy="162" r="2" opacity="1"/>
    <circle cx="480" cy="162" r="6" opacity="0.3"/>
    <circle cx="480" cy="162" r="2" opacity="1"/>
    <circle cx="816" cy="162" r="6" opacity="0.3"/>
    <circle cx="816" cy="162" r="2" opacity="1"/>
  </g>
</svg>
